<svg width="78" height="44" viewBox="0 0 78 44" fill="none" xmlns="http://www.w3.org/2000/svg">
<path d="M11.8935 32.0783C5.14078 31.8676 -1.3102 29.4363 -5.95599 24.4553C-17.496 12.0825 -1.05 1.19828 -1.02691 1.3137M11.8935 32.0783C19.3049 32.3096 27.0798 29.8659 33.2303 25.1823C38.2631 21.35 43.8755 10.5825 35.2472 8.62757C27.5025 6.87279 18.4555 12.9825 14.586 19.7827C11.8425 24.6037 11.1139 28.7236 11.8935 32.0783ZM11.8935 32.0783C13.4369 38.7196 20.8913 42.3626 30.327 42.5118C46.0613 42.7606 60.119 34.8238 71.8329 24.2749M70.6522 40.4903C70.0524 39.0645 70.1667 37.4849 70.1966 35.9128C70.2942 30.7507 72.1274 25.0226 76.0036 20.825C70.6806 24.0451 62.8467 26.6222 57.4862 24.1014" stroke="#F2751A" stroke-width="2" stroke-miterlimit="1.5" stroke-linecap="round" stroke-linejoin="round"/>
</svg>
