<svg width="19" height="20" viewBox="0 0 19 20" fill="none" xmlns="http://www.w3.org/2000/svg">
<path d="M7.84697 0.904297H11.0164V5.73679L10.6862 7.07601L11.4184 6.02553L15.0335 2.50481L17.2429 4.6311L13.6413 8.09906L12.4794 8.74791L13.6413 8.52706H18.8606V11.4686H13.6413L12.4794 11.2058L13.6413 11.8821L17.2419 15.3476L15.0322 17.4739L11.4184 14.0003L10.6862 12.9368L11.0164 14.0003V19.0955H7.84697V14.0003L8.19139 12.9368L7.48799 14.0003L3.87285 17.4802L1.66346 15.3476L5.26403 11.8821L6.3826 11.2058L5.06217 11.4686H0V8.52706H5.26403L6.38364 8.74791L5.26542 8.09906L1.66346 4.63215L3.87285 2.50623L7.22994 5.73785L8.19139 7.07741L7.84697 5.73785V0.904297Z" fill="#EBEBEB"/>
</svg>
