<svg width="187" height="123" viewBox="0 0 187 123" fill="none" xmlns="http://www.w3.org/2000/svg">
<path d="M43.7104 78.1564C38.9405 77.8442 26.91 77.5429 25.9234 78.3838C24.5467 79.5571 24.089 81.5689 23.6537 83.2464C19.6021 83.2889 15.5337 83.4062 11.482 83.3448C9.36089 83.3126 6.40501 83.2467 4.46297 84.2237C2.47205 85.2253 0.549527 89.4978 3.56902 90.5555C5.04173 91.0715 6.72988 90.9596 8.26606 91.0362C11.371 91.191 14.4802 91.1807 17.5875 91.2175C15.7194 92.4098 15.5866 95.7217 17.28 97.132C17.9079 97.6549 18.7602 97.7754 19.5507 97.8442C16.9133 99.8735 19.3917 102.828 21.6362 103.864C21.4548 104.401 21.2575 104.916 21.2034 105.486C20.9723 107.921 23.4534 109.258 25.5069 109.592C27.3244 109.888 38.1703 109.963 43.4133 109.865M23.6318 83.2317C26.3416 83.1388 29.0747 83.5471 31.7906 83.4377M50.6371 76.7601C48.4105 76.6834 46.1311 76.7463 43.9767 76.7853C43.5326 79.3474 43.8336 81.907 43.8705 84.4803C43.9057 86.9362 43.6872 89.3987 43.6969 91.8582C43.7224 98.2894 43.1828 104.754 43.4115 111.188C45.1856 111.158 47.8675 111.261 50.1673 111.298M185 81.5409C179.16 81.2426 168.614 82.2208 162.922 78.5881C159.532 76.4245 159.406 71.2991 159.282 67.2436C158.969 56.9849 158.447 48.8799 158.268 38.5853C157.378 -12.56 82.7564 -10.6995 81.6108 40.9069C81.4313 48.9944 80.9153 57.0222 81.0544 65.1347C81.1755 72.2 77.6367 74.2576 72.3953 74.8846C65.1187 75.755 57.5143 73.7318 50.3064 74.9472C50.6509 81.7308 49.9748 88.4989 49.9903 95.268C50.0046 101.564 50.137 107.945 49.944 114.242C52.7379 113.543 56.2499 114.356 59.1154 114.458C66.1175 114.706 79.0922 113.371 86.0971 113.064C90.1937 112.884 95.4577 112.354 98.9375 109.471C103.395 105.777 106.853 99.3217 109.141 93.4438C110.814 89.1453 111.901 84.4122 112.236 79.6747C112.68 73.4126 113.322 67.077 113.722 60.8377C114.157 54.0291 115.141 46.779 120.998 45.6616C122.928 45.2933 124.805 45.8906 126.203 47.6202C129.307 51.4586 129.026 69.018 128.987 72.8664C128.855 85.7998 129.972 104.784 140.677 115.14C145.419 119.727 156.845 121.122 162.481 121.008C169.829 120.86 175.493 121.304 182.83 120.672" stroke="#F2751A" stroke-width="2.39211" stroke-miterlimit="1.5" stroke-linecap="round" stroke-linejoin="round"/>
</svg>
