<svg width="221" height="193" viewBox="0 0 221 193" fill="none" xmlns="http://www.w3.org/2000/svg">
<path d="M217.341 155.763C213.266 150.541 202.075 144.04 204.778 138.513C216.162 115.238 227.606 86.348 210.771 60.4954C203.949 50.0159 192.956 38.3613 180.712 34.2209C172.427 31.4215 162.409 35.2377 161.4 44.2301C160.338 53.7391 171.246 62.565 176.34 69.9751C180.14 75.5071 181.471 81.3197 175.705 85.3365C173.957 86.555 171.969 87.4847 169.938 88.2307C167.135 89.2615 164.175 89.7761 161.084 89.5404C150.792 88.7528 139.278 78.3763 133.993 70.031C130.632 64.7223 129.229 58.2193 133.684 53.75C140.609 46.8075 155.475 53.1571 160.609 44.1725C161.458 42.6862 162.058 41.0369 162.21 39.2926C163.249 27.3806 150.432 21.945 140.34 20.407C130.655 18.93 119.23 18.9831 110.613 23.032C91.3671 32.0797 91.774 57.2241 99.2532 75.1866C88.1786 59.6568 83.8527 40.6126 75.3754 23.9204C71.6399 16.5681 67.5193 8.08273 60.1579 3.33254C53.7393 -0.806812 46.755 0.826403 43.9084 7.53406C40.9705 14.4549 41.8243 23.2257 43.2483 30.6889C47.4898 52.9278 58.7635 73.7087 74.5491 90.8044C61.242 80.4322 48.0373 69.8654 34.8307 59.366C28.7107 54.5039 22.3532 48.1734 16.0804 46.687C7.38752 44.6234 1.0855 50.1298 1.19429 58.6326C1.28895 66.0234 5.10042 72.8459 9.6282 78.9124C18.7199 91.0973 31.6049 100.574 44.3068 108.851C58.4257 118.053 72.9802 127.073 88.8071 132.66C76.7085 130.139 64.9296 127.299 53.0326 123.694C41.7641 120.279 25.3636 111.142 13.5125 113.745C4.79208 115.661 5.14602 123.917 9.26422 131.156C14.4871 140.34 25.6531 145.84 35.1399 149.612C54.3602 157.256 74.5704 162.004 94.7885 164.352C101.603 165.144 108.431 165.658 115.247 165.896C118.236 165.999 122.91 165.134 125.754 166.117C129.016 167.243 132.227 170.932 134.692 173.18C141.069 178.99 147.573 185.018 153.151 191.57" stroke="#F2751A" stroke-width="2" stroke-miterlimit="1.5" stroke-linecap="round" stroke-linejoin="round"/>
</svg>
