<svg width="240" height="240" viewBox="0 0 240 240" fill="none" xmlns="http://www.w3.org/2000/svg">
<path d="M238.269 109.048C231.939 107.097 219.042 108.168 218.096 102.088C214.115 76.4865 206.972 46.2447 178.373 34.6741C166.782 29.9826 151.098 26.7138 138.687 30.324C130.29 32.7686 124.257 41.6303 128.575 49.5823C133.145 57.9889 147.141 58.9859 155.558 62.1489C161.84 64.5119 166.257 68.5174 163.827 75.1109C163.09 77.1103 161.992 79.0103 160.753 80.784C159.044 83.2332 156.91 85.3491 154.24 86.9244C145.349 92.1671 129.969 90.2445 120.859 86.4242C115.066 83.9929 110.194 79.4626 111.291 73.2479C112.998 63.5921 128.823 60.294 127.894 49.9874C127.74 48.2828 127.288 46.5871 126.414 45.0696C120.451 34.7056 106.83 37.5806 97.6727 42.0935C88.8846 46.4234 79.5446 53.0041 74.7937 61.2553C64.1863 79.6871 78.9065 100.076 95.318 110.529C77.3497 104.129 62.9056 90.9848 46.4024 82.1451C39.132 78.2525 30.8976 73.6509 22.1423 73.9669C14.5099 74.2445 9.71611 79.5801 11.2193 86.7101C12.7697 94.0671 18.4882 100.772 23.9262 106.078C40.129 121.89 61.265 132.483 83.9929 137.472C67.1446 136.579 50.269 135.468 33.4304 134.414C25.6292 133.928 16.7931 132.373 10.798 134.743C2.48794 138.024 0.469884 146.146 5.42408 153.057C9.73042 159.065 16.7599 162.479 23.9443 164.864C38.3725 169.656 54.3619 170.055 69.5153 169.576C86.3601 169.045 103.458 168.116 119.634 163.642C108.269 168.496 96.9844 172.907 85.1645 176.758C73.9684 180.404 55.2899 182.294 47.0596 191.209C41.0039 197.77 46.018 204.339 53.5375 207.92C63.0758 212.464 75.3804 210.586 85.319 208.251C105.456 203.523 124.748 195.854 142.673 186.212C148.716 182.962 154.609 179.478 160.335 175.773C162.846 174.147 166.184 170.764 169.079 169.942C172.398 169 177.143 170.188 180.451 170.621C189.004 171.738 197.788 172.96 206.111 175.142" stroke="#F2751A" stroke-width="2" stroke-miterlimit="1.5" stroke-linecap="round" stroke-linejoin="round"/>
</svg>
