<svg width="355" height="300" viewBox="0 0 355 300" fill="none" xmlns="http://www.w3.org/2000/svg">
<path fill-rule="evenodd" clip-rule="evenodd" d="M109.387 10.411C109.924 10.5396 110.463 10.2083 110.592 9.67123C110.72 9.13411 110.389 8.59449 109.852 8.46595C70.0765 -1.05249 32.901 -2.53211 2.8214 3.96394C-27.2554 10.4594 -50.3469 24.9605 -61.7076 47.4883C-73.9914 71.8461 -70.5777 101.648 -55.0507 132.102C-39.5191 162.566 -11.8094 193.817 24.7819 221.24C25.2238 221.571 25.8506 221.481 26.1818 221.039C26.513 220.597 26.4232 219.971 25.9813 219.639C-10.4343 192.348 -37.9104 161.318 -53.2689 131.194C-68.6322 101.061 -71.8133 71.9687 -59.9219 48.3888C-48.923 26.5787 -26.4703 12.3359 3.24359 5.91887C32.9546 -0.497575 69.8163 0.941718 109.387 10.411ZM282.827 99.7021C282.42 99.3291 281.787 99.3568 281.414 99.7641C281.041 100.171 281.069 100.804 281.476 101.177C288.783 107.87 295.568 114.7 301.79 121.609C302.16 122.019 302.792 122.052 303.203 121.683C303.613 121.313 303.646 120.681 303.276 120.27C297.009 113.312 290.179 106.437 282.827 99.7021ZM342.75 181.87C342.554 181.354 341.977 181.094 341.461 181.29C340.944 181.485 340.684 182.063 340.88 182.579C350.273 207.344 350.847 230.855 340.922 250.535C340.674 251.028 340.872 251.63 341.365 251.879C341.858 252.127 342.459 251.929 342.708 251.436C352.958 231.111 352.277 206.988 342.75 181.87ZM302.311 287.357C302.818 287.138 303.051 286.549 302.832 286.042C302.612 285.535 302.024 285.302 301.517 285.522C287.293 291.679 270.378 295.361 251.558 296.523C251.006 296.557 250.587 297.031 250.621 297.583C250.655 298.134 251.13 298.553 251.681 298.519C270.679 297.346 287.83 293.626 302.311 287.357ZM327.81 255.94H322.433V264.442L323.017 266.799L321.386 264.442L315.69 258.757L311.941 262.497L318.053 268.596L319.95 269.737L318.05 269.349H309.119V274.523H317.708L319.948 274.061L318.05 275.251L311.941 281.347L315.69 285.098L321.824 278.977L323.017 277.106L322.433 278.977V287.94H327.81V278.977L327.25 277.106L328.492 278.977L334.624 285.087L338.373 281.347L332.264 275.251L330.292 274.061L332.264 274.523H341.119V269.349H332.264L330.292 269.737L332.264 268.596L338.375 262.495L334.626 258.755L328.492 264.948L327.25 266.796L327.81 264.44V255.94Z" fill="#F2751A"/>
</svg>
