<svg width="168" height="285" viewBox="0 0 168 285" fill="none" xmlns="http://www.w3.org/2000/svg">
<path d="M212.677 115.361L220.179 91.2047L269.221 2.48041L329.494 25.3658L280.441 112.875L261.11 132.712L261.881 133.641L284.351 121.565L392.126 85.4716L413.204 137.889L305.438 173.979L279.445 177.272L279.487 178.437L308.496 182.653L407.895 220.399L378.14 273.437L278.228 235.566L255.294 221.338L254.515 222.191L269.088 239.17L306.112 331.245L241.428 352.908L204.405 260.836L203.779 239.19L202.577 239.002L195.769 263.185L146.435 351.163L86.1112 328.163L135.166 240.697L153.404 220.657L152.616 219.743L127.163 233.682L22.6529 268.682L1.57518 216.264L110.277 179.861L135.093 176.101L135.035 174.938L107.135 170.917L7.69739 133.155L37.4476 80.1266L130.264 115.38L159.985 133.043L160.774 132.209L143.871 110.294L108.755 22.9652L173.439 1.3031L208.548 88.6161L211.482 115.205L212.677 115.361Z" stroke="#F2751A" stroke-width="1.2"/>
</svg>
