<svg width="315" height="336" viewBox="0 0 315 336" fill="none" xmlns="http://www.w3.org/2000/svg">
<path d="M91.9176 8.17864C50.5109 2.25561 14.1149 11.0326 -9.50347 33.4229C-20.8539 46.8132 -26.0087 54.8607 -32.4444 70.3173C-36.0109 81.3325 -37.678 93.0842 -37.6045 105.287C-37.407 138.09 -21.7793 177.381 1.33712 212.132C5.29454 218.978 10.0151 225.606 15.3418 232M91.6548 8.16214C93.8139 8.54961 95.2624 10.2924 95.836 9.95874C96.6727 9.47199 96.2087 5.73566 97.2523 5.50401C98.2642 5.25002 99.3779 8.33018 99.5478 8.69211M99.5553 4.93909L100.559 3.77891M100.133 16.0605L100.331 16.9539M102.145 10.9267L103.746 11.5089M115.046 16.9701C116.308 16.3523 119.48 14.9379 120.788 14.4942C133.45 18.195 146.389 23.1749 159.412 29.4611C182.182 42.8198 188.495 46.6038 203.5 59.5002M116.356 12.4605L116.257 12.0138M111.674 1.78112L112.368 4.90806M110.429 22.6802L110.833 20.7155M279.646 135.015C309.369 180.894 321.576 230.781 308.587 270.9C292.379 320.957 241.224 342.595 179.824 332.357C148.5 327.134 132.823 321.054 115 312.5" stroke="#F2751A" stroke-width="2" stroke-linecap="round"/>
</svg>
