<svg fill="none" height="20" viewBox="0 0 20 20" width="20" xmlns="http://www.w3.org/2000/svg"><path d="m8.32101 0h3.36089v5.313l-.3501 1.47238.7764-1.15494 3.8335-3.87078 2.3429 2.33771-3.8192 3.81278-1.2321.71337 1.2321-.24281h5.5346v3.23399h-5.5346l-1.2321-.2889 1.2321.7436 3.8181 3.81-2.3432 2.3378-3.8321-3.819-.7764-1.1693.3501 1.1693v5.6018h-3.36089v-5.6018l.36522-1.1693-.74589 1.1693-3.83353 3.8259-2.34286-2.3447 3.81809-3.81 1.18614-.7436-1.4002.2889h-5.36798v-3.23399h5.58204l1.18724.24281-1.18577-.71337-3.81956-3.81163 2.34286-2.33731 3.55989 3.55295 1.01953 1.47276-.36522-1.47276z" fill="#f2751a"/></svg>