<svg width="45" height="39" viewBox="0 0 45 39" fill="none" xmlns="http://www.w3.org/2000/svg">
<path d="M15.8974 0L18.3333 5.02272C16.9658 7.18939 15.6838 9.60227 14.4872 12.2614C13.3761 14.9205 12.735 17.678 12.5641 20.5341L19.6154 22.0114V39H0V26.8864C0 19.8939 1.41026 14.2803 4.23077 10.0455C7.13675 5.71212 11.0256 2.36364 15.8974 0ZM41.2821 0L43.7179 5.02272C42.3504 7.18939 41.0684 9.60227 39.8718 12.2614C38.7607 14.9205 38.1197 17.678 37.9487 20.5341L45 22.0114V39H25.3846V26.8864C25.3846 19.8939 26.7949 14.2803 29.6154 10.0455C32.5214 5.71212 36.4103 2.36364 41.2821 0Z" fill="#F2751A"/>
</svg>
