<svg width="50" height="52" viewBox="0 0 50 52" fill="none" xmlns="http://www.w3.org/2000/svg">
<path d="M35.1011 12.4342C36.3019 12.0222 37.5764 11.8608 38.8073 11.5969M42.8216 17.9149C42.678 16.8386 42.4096 15.7514 42.1922 14.6872M44.4542 10.3075C45.6327 10.3139 47.1567 10.079 48.2943 9.66336M41.067 6.86695C41.1732 5.43238 40.6642 3.91983 40.5092 2.48569M1.52108 38.4165C2.86739 38.2644 4.1971 38.01 5.5219 37.7115M9.0567 44.405C8.9692 43.2676 8.84668 42.1783 8.66852 41.0581M11.1056 36.5214C12.3647 36.5008 13.7036 36.2206 14.9423 35.9352M7.66882 32.9218C7.38599 31.6267 7.00253 30.4281 6.86997 29.0888M11.8993 1.48125C27.4229 30.5555 29.265 35.4512 20.0852 46.8595C28.8384 44.0458 35.1964 45.3555 41.6903 50.6531C38.1914 37.5707 41.4215 35.1932 45.4726 28.5662C34.04 32.6244 30.295 26.8868 11.8993 1.48125Z" stroke="#F2751A" stroke-width="2" stroke-miterlimit="1.5" stroke-linecap="round" stroke-linejoin="round"/>
</svg>
