<svg width="92" height="45" viewBox="0 0 92 45" fill="none" xmlns="http://www.w3.org/2000/svg">
<path d="M24.694 35.3907C23.3444 35.3907 22.0798 34.8058 20.9308 33.8536L21.2106 32.5095L21.2228 32.4597C21.4719 31.0285 22.2623 28.6263 24.694 28.6263C26.5177 28.6263 28.0011 30.1448 28.0011 32.0116C27.9949 33.8722 26.5117 35.3907 24.694 35.3907ZM24.694 25.1976C21.5874 25.1976 19.1801 27.2636 18.2015 30.6613C16.7059 28.365 15.5751 25.6083 14.9126 23.2871H11.569V32.192C11.569 33.9469 10.1707 35.3781 8.45639 35.3781C6.74202 35.3781 5.34394 33.9469 5.34394 32.192V23.2871H2.00004V32.192C1.98787 35.8388 4.88769 38.8319 8.45006 38.8319C12.0126 38.8319 14.9124 35.8388 14.9124 32.192V30.6986C15.5628 32.0863 16.3592 33.4864 17.3258 34.7311L15.277 44.588H18.6997L20.183 37.4379C21.4839 38.2905 22.9795 38.8258 24.6938 38.8258C28.3595 38.8258 31.3445 35.7516 31.3445 31.9991C31.3445 28.2529 28.3597 25.1976 24.694 25.1976Z" fill="black"/>
<path d="M41.5523 25.5821L43.7104 34.487L46.0875 25.5821H48.9204L45.2668 38.451H42.4338L40.1907 29.49L37.9535 38.4447H35.1206L31.4668 25.5759H34.2998L36.6767 34.4809L38.8348 25.5759H41.5522V25.5823L41.5523 25.5821ZM55.6987 25.1962C52.0208 25.1962 49.042 28.2516 49.042 32.0103C49.042 35.7752 52.0268 38.8244 55.6987 38.8244C59.3767 38.8244 62.3615 35.7752 62.3615 32.0103C62.3615 28.2455 59.3767 25.1962 55.6987 25.1962ZM55.6987 36.0241C53.5345 36.0241 51.7837 34.2318 51.7837 32.0166C51.7837 29.8011 53.5405 28.009 55.6987 28.009C57.8629 28.009 59.6136 29.8011 59.6136 32.0166C59.6136 34.2257 57.8629 36.0241 55.6987 36.0241ZM70.4529 28.4633C68.5502 28.4633 67.0121 30.0439 67.0121 31.9854V38.4447H64.1608V25.5821H67.0121V27.5609C67.0121 27.5609 68.2279 25.5758 70.7265 25.5758H71.6018V28.4633H70.4529ZM80.0217 31.5125C82.0458 30.3425 83.4199 28.1209 83.4199 25.5758H80.5686C80.5686 27.7227 78.8665 29.4651 76.7692 29.4651H76.3861V19.3716H73.5351V38.4446H76.3861V32.3836H76.7267C77.0064 32.3836 77.3711 32.5704 77.5353 32.8005L81.5839 38.4447H85.0004L80.0217 31.5125Z" fill="#1F2122"/>
<path d="M11 12.1071V6L2 12.4286L6.5 15L11 12.1071Z" fill="black"/>
<path d="M18.0342 8.74128H16.4927V13.0725H15.5416V8.74128H14V7.95989H18.0342V8.74128Z" fill="black"/>
<path d="M23.7246 10.5162C23.7246 10.891 23.6621 11.2387 23.5372 11.5592C23.4146 11.8775 23.2402 12.1532 23.0139 12.3866C22.7876 12.62 22.5154 12.8026 22.1972 12.9346C21.879 13.0643 21.5254 13.1291 21.1365 13.1291C20.7499 13.1291 20.3975 13.0643 20.0793 12.9346C19.7611 12.8026 19.4876 12.62 19.259 12.3866C19.0327 12.1532 18.8571 11.8775 18.7322 11.5592C18.6072 11.2387 18.5448 10.891 18.5448 10.5162C18.5448 10.1414 18.6072 9.79493 18.7322 9.47671C18.8571 9.15614 19.0327 8.87918 19.259 8.64582C19.4876 8.41246 19.7611 8.23096 20.0793 8.10132C20.3975 7.96932 20.7499 7.90332 21.1365 7.90332C21.3957 7.90332 21.6397 7.93396 21.8683 7.99525C22.097 8.05418 22.3068 8.13903 22.4977 8.24982C22.6886 8.35825 22.8595 8.49143 23.0104 8.64936C23.1636 8.80493 23.2932 8.97936 23.3993 9.17264C23.5054 9.36593 23.5855 9.57571 23.6397 9.802C23.6963 10.0283 23.7246 10.2664 23.7246 10.5162ZM22.7523 10.5162C22.7523 10.2357 22.7146 9.98468 22.6391 9.76311C22.5637 9.53918 22.4565 9.34943 22.3174 9.19386C22.1783 9.03828 22.0086 8.91925 21.8082 8.83675C21.6102 8.75425 21.3863 8.713 21.1365 8.713C20.8866 8.713 20.6615 8.75425 20.4611 8.83675C20.2631 8.91925 20.0934 9.03828 19.952 9.19386C19.8129 9.34943 19.7057 9.53918 19.6302 9.76311C19.5548 9.98468 19.5171 10.2357 19.5171 10.5162C19.5171 10.7967 19.5548 11.0489 19.6302 11.2729C19.7057 11.4944 19.8129 11.683 19.952 11.8386C20.0934 11.9918 20.2631 12.1096 20.4611 12.1921C20.6615 12.2746 20.8866 12.3159 21.1365 12.3159C21.3863 12.3159 21.6102 12.2746 21.8082 12.1921C22.0086 12.1096 22.1783 11.9918 22.3174 11.8386C22.4565 11.683 22.5637 11.4944 22.6391 11.2729C22.7146 11.0489 22.7523 10.7967 22.7523 10.5162Z" fill="black"/>
<path d="M26.5399 10.5304C26.7143 10.5304 26.8663 10.5091 26.996 10.4667C27.1256 10.4219 27.2329 10.3595 27.3177 10.2793C27.4049 10.1968 27.4697 10.0978 27.5122 9.98232C27.5546 9.86446 27.5758 9.73364 27.5758 9.58986C27.5758 9.45314 27.5546 9.32939 27.5122 9.21861C27.4697 9.10782 27.4061 9.01353 27.3212 8.93575C27.2364 8.85796 27.1291 8.79903 26.9995 8.75896C26.8699 8.71653 26.7166 8.69532 26.5399 8.69532H25.8292V10.5304H26.5399ZM26.5399 7.95989C26.8816 7.95989 27.1775 7.99996 27.4273 8.08011C27.6772 8.16025 27.8834 8.27221 28.0461 8.416C28.2087 8.55978 28.3289 8.73186 28.4067 8.93221C28.4869 9.13257 28.5269 9.35178 28.5269 9.58986C28.5269 9.83736 28.4857 10.0648 28.4032 10.2722C28.3207 10.4773 28.1969 10.6541 28.0319 10.8026C27.8669 10.9511 27.6595 11.0666 27.4096 11.1491C27.1621 11.2316 26.8722 11.2729 26.5399 11.2729H25.8292V13.0725H24.8781V7.95989H26.5399Z" fill="black"/>
<path d="M32.9571 10.3925C33.1362 10.3925 33.2918 10.3701 33.4238 10.3253C33.5581 10.2805 33.6677 10.2192 33.7526 10.1414C33.8398 10.0613 33.9046 9.967 33.9471 9.85857C33.9895 9.75014 34.0107 9.63111 34.0107 9.50146C34.0107 9.24218 33.9247 9.043 33.7526 8.90393C33.5829 8.76486 33.3224 8.69532 32.9712 8.69532H32.3631V10.3925H32.9571ZM35.4038 13.0725H34.5446C34.382 13.0725 34.2641 13.0089 34.191 12.8816L33.1162 11.2446C33.0761 11.1833 33.0313 11.1397 32.9818 11.1137C32.9347 11.0878 32.864 11.0749 32.7697 11.0749H32.3631V13.0725H31.412V7.95989H32.9712C33.3177 7.95989 33.6147 7.99643 33.8622 8.0695C34.1121 8.14021 34.316 8.24039 34.4739 8.37003C34.6342 8.49968 34.752 8.65525 34.8275 8.83675C34.9029 9.01589 34.9406 9.21389 34.9406 9.43075C34.9406 9.60282 34.9147 9.76546 34.8628 9.91868C34.8133 10.0719 34.7402 10.211 34.6436 10.3359C34.5493 10.4608 34.4315 10.5704 34.29 10.6647C34.151 10.759 33.9918 10.8332 33.8127 10.8875C33.874 10.9228 33.9306 10.9652 33.9824 11.0147C34.0343 11.0619 34.0814 11.1185 34.1238 11.1845L35.4038 13.0725Z" fill="black"/>
<path d="M38.9754 11.142L38.3531 9.44136C38.3225 9.36593 38.2906 9.27636 38.2577 9.17264C38.2246 9.06893 38.1917 8.95696 38.1587 8.83675C38.128 8.95696 38.0962 9.07011 38.0632 9.17618C38.0302 9.27989 37.9984 9.37064 37.9677 9.44843L37.349 11.142H38.9754ZM40.6549 13.0725H39.9194C39.8369 13.0725 39.7698 13.0525 39.7179 13.0124C39.666 12.97 39.6271 12.9181 39.6012 12.8569L39.2194 11.8138H37.1015L36.7196 12.8569C36.7008 12.9111 36.6642 12.9606 36.61 13.0054C36.5558 13.0501 36.4886 13.0725 36.4085 13.0725H35.666L37.6778 7.95989H38.6466L40.6549 13.0725Z" fill="black"/>
<path d="M44.5761 8.74128H43.0346V13.0725H42.0835V8.74128H40.5419V7.95989H44.5761V8.74128Z" fill="black"/>
<path d="M46.518 8.71653V10.1344H48.3071V10.8662H46.518V12.3124H48.7879V13.0725H45.5634V7.95989H48.7879V8.71653H46.518Z" fill="black"/>
<path d="M54.4889 10.5162C54.4889 10.891 54.4264 11.2351 54.3015 11.5486C54.1766 11.8621 54.001 12.132 53.7747 12.3583C53.5484 12.5846 53.2761 12.7602 52.9579 12.8851C52.6397 13.0101 52.2861 13.0725 51.8972 13.0725H49.949V7.95989H51.8972C52.2861 7.95989 52.6397 8.02353 52.9579 8.15082C53.2761 8.27575 53.5484 8.45136 53.7747 8.67764C54.001 8.90157 54.1766 9.17028 54.3015 9.48378C54.4264 9.79728 54.4889 10.1414 54.4889 10.5162ZM53.513 10.5162C53.513 10.2357 53.4753 9.98468 53.3999 9.76311C53.3268 9.53918 53.2196 9.35061 53.0782 9.19739C52.9391 9.04182 52.7694 8.92278 52.569 8.84028C52.371 8.75778 52.1471 8.71653 51.8972 8.71653H50.9037V12.3159H51.8972C52.1471 12.3159 52.371 12.2746 52.569 12.1921C52.7694 12.1096 52.9391 11.9918 53.0782 11.8386C53.2196 11.683 53.3268 11.4944 53.3999 11.2729C53.4753 11.0489 53.513 10.7967 53.513 10.5162Z" fill="black"/>
<path d="M59.3463 10.5304C59.5207 10.5304 59.6728 10.5091 59.8024 10.4667C59.9321 10.4219 60.0393 10.3595 60.1242 10.2793C60.2114 10.1968 60.2762 10.0978 60.3186 9.98232C60.3611 9.86446 60.3823 9.73364 60.3823 9.58986C60.3823 9.45314 60.3611 9.32939 60.3186 9.21861C60.2762 9.10782 60.2126 9.01353 60.1277 8.93575C60.0428 8.85796 59.9356 8.79903 59.806 8.75896C59.6763 8.71653 59.5231 8.69532 59.3463 8.69532H58.6356V10.5304H59.3463ZM59.3463 7.95989C59.6881 7.95989 59.9839 7.99996 60.2338 8.08011C60.4836 8.16025 60.6899 8.27221 60.8525 8.416C61.0152 8.55978 61.1354 8.73186 61.2132 8.93221C61.2933 9.13257 61.3334 9.35178 61.3334 9.58986C61.3334 9.83736 61.2921 10.0648 61.2096 10.2722C61.1271 10.4773 61.0034 10.6541 60.8384 10.8026C60.6734 10.9511 60.466 11.0666 60.2161 11.1491C59.9686 11.2316 59.6787 11.2729 59.3463 11.2729H58.6356V13.0725H57.6845V7.95989H59.3463Z" fill="black"/>
<path d="M65.3757 12.2876V13.0725H62.3809V7.95989H63.3321V12.2876H65.3757Z" fill="black"/>
<path d="M68.2927 12.3053C68.4765 12.3053 68.6403 12.2746 68.7841 12.2134C68.9303 12.1521 69.0528 12.066 69.1518 11.9552C69.2508 11.8445 69.3263 11.7101 69.3781 11.5522C69.4323 11.3942 69.4594 11.2175 69.4594 11.0218V7.95989H70.4106V11.0218C70.4106 11.3259 70.3611 11.6076 70.2621 11.8669C70.1654 12.1238 70.0252 12.3465 69.8413 12.5351C69.6598 12.7213 69.4382 12.8675 69.1766 12.9735C68.9149 13.0772 68.6203 13.1291 68.2927 13.1291C67.9627 13.1291 67.6668 13.0772 67.4052 12.9735C67.1436 12.8675 66.9208 12.7213 66.7369 12.5351C66.5555 12.3465 66.4152 12.1238 66.3162 11.8669C66.2196 11.6076 66.1712 11.3259 66.1712 11.0218V7.95989H67.1223V11.0183C67.1223 11.2139 67.1483 11.3907 67.2001 11.5486C67.2543 11.7066 67.3309 11.8421 67.4299 11.9552C67.5313 12.066 67.6539 12.1521 67.7977 12.2134C67.9438 12.2746 68.1088 12.3053 68.2927 12.3053Z" fill="black"/>
<path d="M74.5239 8.88978C74.4956 8.93928 74.465 8.97582 74.432 8.99939C74.4013 9.02061 74.3624 9.03121 74.3153 9.03121C74.2658 9.03121 74.2116 9.01353 74.1527 8.97818C74.0961 8.94046 74.0277 8.89921 73.9476 8.85443C73.8674 8.80964 73.7732 8.76957 73.6647 8.73421C73.5587 8.6965 73.4326 8.67764 73.2864 8.67764C73.1544 8.67764 73.0389 8.69414 72.9399 8.72714C72.8409 8.75778 72.7572 8.80139 72.6889 8.85796C72.6229 8.91453 72.5734 8.98289 72.5404 9.06303C72.5074 9.14082 72.4909 9.22686 72.4909 9.32114C72.4909 9.44136 72.5239 9.54153 72.5899 9.62168C72.6582 9.70182 72.7478 9.77018 72.8586 9.82675C72.9694 9.88332 73.0955 9.934 73.2369 9.97878C73.3783 10.0236 73.5233 10.0719 73.6718 10.1237C73.8203 10.1732 73.9653 10.2322 74.1067 10.3005C74.2481 10.3665 74.3742 10.4514 74.485 10.5551C74.5958 10.6565 74.6842 10.7814 74.7502 10.9299C74.8186 11.0784 74.8527 11.2587 74.8527 11.4709C74.8527 11.7019 74.8127 11.9187 74.7325 12.1214C74.6547 12.3218 74.5392 12.4974 74.386 12.6482C74.2352 12.7967 74.0501 12.9146 73.8309 13.0018C73.6117 13.0867 73.3607 13.1291 73.0778 13.1291C72.9152 13.1291 72.7549 13.1126 72.597 13.0796C72.439 13.049 72.287 13.0042 72.1408 12.9452C71.9971 12.8863 71.8615 12.8156 71.7342 12.7331C71.6069 12.6506 71.4938 12.5587 71.3948 12.4573L71.6741 12.0012C71.6977 11.9682 71.7283 11.9411 71.7661 11.9199C71.8038 11.8963 71.8438 11.8845 71.8863 11.8845C71.9452 11.8845 72.0088 11.9093 72.0772 11.9588C72.1456 12.0059 72.2269 12.059 72.3212 12.1179C72.4154 12.1768 72.5251 12.231 72.65 12.2805C72.7773 12.3277 72.9293 12.3512 73.1061 12.3512C73.3772 12.3512 73.5869 12.2876 73.7354 12.1603C73.8839 12.0307 73.9582 11.8456 73.9582 11.6052C73.9582 11.4709 73.924 11.3612 73.8557 11.2764C73.7897 11.1915 73.7013 11.1208 73.5905 11.0642C73.4797 11.0053 73.3536 10.9558 73.2122 10.9157C73.0707 10.8757 72.927 10.8321 72.7808 10.7849C72.6347 10.7378 72.4909 10.6812 72.3494 10.6152C72.208 10.5492 72.0819 10.4632 71.9711 10.3571C71.8603 10.251 71.7708 10.119 71.7024 9.96111C71.6364 9.80082 71.6034 9.604 71.6034 9.37064C71.6034 9.18443 71.6399 9.00293 71.713 8.82614C71.7884 8.64936 71.8969 8.49261 72.0383 8.35589C72.1797 8.21918 72.3542 8.10957 72.5616 8.02707C72.769 7.94457 73.0071 7.90332 73.2758 7.90332C73.5775 7.90332 73.8557 7.95046 74.1102 8.04475C74.3648 8.13903 74.5817 8.27103 74.7608 8.44075L74.5239 8.88978Z" fill="black"/>
<path d="M11 6H2L6.5 9.21429L11 6Z" fill="#565858"/>
<path d="M2 12.4286V6L6.5 9.21429L2 12.4286Z" fill="#35393B"/>
</svg>
