<svg width="90" height="44" viewBox="0 0 90 44" fill="none" xmlns="http://www.w3.org/2000/svg">
<path d="M66.1065 32.0778C72.8592 31.8671 79.3102 29.4358 83.956 24.4548C95.496 12.082 79.05 1.19779 79.0269 1.31321M66.1065 32.0778C58.6951 32.3091 50.9202 29.8654 44.7697 25.1818C39.7369 21.3495 34.1245 10.582 42.7528 8.62708C50.4975 6.8723 59.5445 12.982 63.414 19.7822C66.1575 24.6033 66.8861 28.7231 66.1065 32.0778ZM66.1065 32.0778C64.5631 38.7192 57.1087 42.3621 47.673 42.5113C31.9387 42.7601 17.881 34.8233 6.16706 24.2744M7.34778 40.4898C7.94761 39.064 7.83326 37.4844 7.80337 35.9123C7.7058 30.7502 5.87262 25.0221 1.99637 20.8245C7.3194 24.0447 15.1533 26.6218 20.5138 24.1009" stroke="#F2751A" stroke-width="2" stroke-miterlimit="1.5" stroke-linecap="round" stroke-linejoin="round"/>
</svg>
