<svg width="224" height="250" viewBox="0 0 224 250" fill="none" xmlns="http://www.w3.org/2000/svg">
<path d="M4.11547 9.95519C16.6678 7.77813 29.3151 6.2393 41.8741 4.14677C44.4571 3.71831 52.2729 0.392951 54.2563 1.33534C57.0364 2.65826 55.367 11.7871 55.0381 13.9212C53.3471 24.8646 50.6731 35.5045 47.9936 46.2306C47.6827 47.4768 46.5367 55.217 45.4313 55.5607C41.2297 56.868 35.8608 49.5397 33.5367 47.3285C23.3921 37.6754 9.22173 24.7254 1.77576 12.6852M52.8676 27.3518C92.8217 30.303 147.554 50.3343 172.221 84.3584C176.456 90.1989 180.81 100.632 183.009 111.659M183.009 111.659C186.623 129.775 184.422 149.496 166.325 153.096C134.427 159.44 140.641 107.413 170.359 109.042C174.882 109.29 179.099 110.201 183.009 111.659ZM183.009 111.659C201.817 118.672 213.551 138.347 218.3 157.877C228.437 199.568 218.34 238.115 191.226 270.749" stroke="#F2751A" stroke-width="2" stroke-miterlimit="1.5" stroke-linecap="round" stroke-linejoin="round"/>
</svg>
