<svg width="105" height="33" viewBox="0 0 105 33" fill="none" xmlns="http://www.w3.org/2000/svg">
<path d="M24.113 14.143C24.113 17.443 23.134 20.072 21.176 22.03C18.976 24.362 16.083 25.528 12.497 25.528C9.065 25.528 6.161 24.34 3.785 21.964C1.409 19.588 0.221 16.662 0.221 13.186C0.221 9.71 1.409 6.784 3.785 4.408C6.161 2.032 9.065 0.843998 12.497 0.843998C14.235 0.843998 15.874 1.152 17.414 1.768C18.954 2.384 20.219 3.253 21.209 4.375L19.031 6.553C18.305 5.673 17.359 4.991 16.193 4.507C15.049 4.001 13.817 3.748 12.497 3.748C9.923 3.748 7.745 4.639 5.963 6.421C4.203 8.225 3.323 10.48 3.323 13.186C3.323 15.892 4.203 18.147 5.963 19.951C7.745 21.733 9.923 22.624 12.497 22.624C14.851 22.624 16.809 21.964 18.371 20.644C19.933 19.324 20.835 17.509 21.077 15.199H12.497V12.361H23.948C24.058 12.977 24.113 13.571 24.113 14.143ZM26.1886 16.915C26.1886 14.429 26.9696 12.372 28.5316 10.744C30.1156 9.116 32.1066 8.302 34.5046 8.302C36.9026 8.302 38.8826 9.116 40.4446 10.744C42.0286 12.372 42.8206 14.429 42.8206 16.915C42.8206 19.423 42.0286 21.48 40.4446 23.086C38.8826 24.714 36.9026 25.528 34.5046 25.528C32.1066 25.528 30.1156 24.714 28.5316 23.086C26.9696 21.458 26.1886 19.401 26.1886 16.915ZM29.2246 16.915C29.2246 18.653 29.7306 20.061 30.7426 21.139C31.7546 22.217 33.0086 22.756 34.5046 22.756C36.0006 22.756 37.2546 22.217 38.2666 21.139C39.2786 20.061 39.7846 18.653 39.7846 16.915C39.7846 15.199 39.2786 13.802 38.2666 12.724C37.2326 11.624 35.9786 11.074 34.5046 11.074C33.0306 11.074 31.7766 11.624 30.7426 12.724C29.7306 13.802 29.2246 15.199 29.2246 16.915ZM44.6545 16.915C44.6545 14.429 45.4355 12.372 46.9975 10.744C48.5815 9.116 50.5725 8.302 52.9705 8.302C55.3685 8.302 57.3485 9.116 58.9105 10.744C60.4945 12.372 61.2865 14.429 61.2865 16.915C61.2865 19.423 60.4945 21.48 58.9105 23.086C57.3485 24.714 55.3685 25.528 52.9705 25.528C50.5725 25.528 48.5815 24.714 46.9975 23.086C45.4355 21.458 44.6545 19.401 44.6545 16.915ZM47.6905 16.915C47.6905 18.653 48.1965 20.061 49.2085 21.139C50.2205 22.217 51.4745 22.756 52.9705 22.756C54.4665 22.756 55.7205 22.217 56.7325 21.139C57.7445 20.061 58.2505 18.653 58.2505 16.915C58.2505 15.199 57.7445 13.802 56.7325 12.724C55.6985 11.624 54.4445 11.074 52.9705 11.074C51.4965 11.074 50.2425 11.624 49.2085 12.724C48.1965 13.802 47.6905 15.199 47.6905 16.915ZM71.3043 22.756C72.8003 22.756 74.0213 22.217 74.9673 21.139C75.9573 20.061 76.4523 18.653 76.4523 16.915C76.4523 15.221 75.9573 13.824 74.9673 12.724C73.9993 11.624 72.7783 11.074 71.3043 11.074C69.8523 11.074 68.6313 11.624 67.6413 12.724C66.6513 13.824 66.1563 15.221 66.1563 16.915C66.1563 18.631 66.6513 20.028 67.6413 21.106C68.6313 22.206 69.8523 22.756 71.3043 22.756ZM71.2053 32.656C70.3033 32.656 69.4563 32.535 68.6643 32.293C67.8723 32.073 67.1463 31.754 66.4863 31.336C65.8483 30.918 65.2983 30.423 64.8363 29.851C64.3743 29.279 64.0223 28.641 63.7803 27.937L66.6513 26.749C66.9813 27.695 67.5533 28.454 68.3673 29.026C69.1813 29.598 70.1273 29.884 71.2053 29.884C72.8553 29.884 74.1423 29.389 75.0663 28.399C75.9903 27.409 76.4523 26.045 76.4523 24.307V22.756H76.3203C75.7483 23.614 74.9673 24.296 73.9773 24.802C73.0093 25.286 71.9533 25.528 70.8093 25.528C68.6973 25.528 66.8823 24.703 65.3643 23.053C63.8683 21.359 63.1203 19.313 63.1203 16.915C63.1203 14.517 63.8683 12.482 65.3643 10.81C66.8823 9.138 68.6973 8.302 70.8093 8.302C71.9533 8.302 73.0093 8.555 73.9773 9.061C74.9673 9.545 75.7483 10.216 76.3203 11.074H76.4523V8.83H79.3563V24.307C79.3563 26.903 78.6193 28.938 77.1453 30.412C75.6493 31.908 73.6693 32.656 71.2053 32.656ZM86.094 1.372V25H83.058V1.372H86.094ZM96.8922 25.528C94.5162 25.528 92.5582 24.714 91.0182 23.086C89.4782 21.458 88.7082 19.401 88.7082 16.915C88.7082 14.451 89.4562 12.405 90.9522 10.777C92.4482 9.127 94.3622 8.302 96.6942 8.302C99.0922 8.302 100.995 9.083 102.403 10.645C103.833 12.185 104.548 14.352 104.548 17.146L104.515 17.476H91.8102C91.8542 19.06 92.3822 20.336 93.3942 21.304C94.4062 22.272 95.6162 22.756 97.0242 22.756C98.9602 22.756 100.478 21.788 101.578 19.852L104.284 21.172C103.558 22.536 102.546 23.603 101.248 24.373C99.9722 25.143 98.5202 25.528 96.8922 25.528ZM92.0412 14.968H101.314C101.226 13.846 100.764 12.922 99.9282 12.196C99.1142 11.448 98.0142 11.074 96.6282 11.074C95.4842 11.074 94.4942 11.426 93.6582 12.13C92.8442 12.834 92.3052 13.78 92.0412 14.968Z" fill="#1A1A1A"/>
</svg>
