<svg width="148" height="28" viewBox="0 0 148 28" fill="none" xmlns="http://www.w3.org/2000/svg">
<path d="M26.2531 15.1561C26.2531 13.6602 24.8389 12.0915 22.3808 12.0915C19.6242 12.0915 16.5977 14.1511 16.1342 18.2618C15.6607 22.4128 18.1952 24.2573 20.7501 24.2573C23.3049 24.2573 24.6426 23.243 26.0108 21.8902C24.8343 20.385 23.315 21.0805 23.0239 21.2339C22.5419 21.5064 21.9962 21.6411 21.4447 21.6237C20.4589 21.6237 19.4528 21.1731 19.4528 19.2977C25.7694 18.662 26.2522 16.6426 26.2522 15.1561H26.2531ZM23.1225 15.402C23.0819 15.8629 22.9013 16.6519 19.7025 17.0941C20.3751 14.654 21.6649 14.4708 22.2573 14.4708C22.3774 14.4652 22.4972 14.486 22.6087 14.5316C22.7202 14.5772 22.8207 14.6466 22.9034 14.7351C22.986 14.8236 23.049 14.9292 23.0879 15.0445C23.1268 15.1599 23.1408 15.2825 23.1289 15.4038L23.1225 15.402ZM12.4241 15.8021L10.9555 20.5065L9.91897 12.3383C7.60645 12.3383 6.36266 14.0192 5.71405 15.7918L3.923 20.5168L3.67148 15.8423C3.53512 13.6696 1.58007 12.3476 0 12.3476L1.91083 24.1648C4.33391 24.1554 5.64219 22.4838 6.32673 20.7113L7.84139 16.694C7.85521 16.8576 8.88801 24.1657 8.88801 24.1657C11.3221 24.1657 12.6304 22.5979 13.3316 20.8861L16.7405 12.3486C14.3404 12.3486 13.0754 14.0192 12.4222 15.8021H12.4241ZM35.1863 12.0625C33.6873 12.0625 32.5421 12.8927 31.5747 14.1118V14.1024L32.4389 7C30.447 7 28.8273 8.76322 28.5159 11.3866L27.0178 24.0732C28.1649 24.0732 29.3819 23.7347 30.0361 22.8737C30.6202 23.6422 31.4945 24.2573 32.7927 24.2573C36.1518 24.2573 38.4561 20.2812 38.4561 16.55C38.4358 13.147 36.8161 12.0718 35.1964 12.0718L35.1863 12.0625ZM34.873 18.1608C34.5229 20.241 33.3842 21.6555 32.2887 21.6555C31.1933 21.6555 30.7096 21.1535 30.7096 21.1535C30.9215 19.3304 31.0523 18.2123 31.454 17.2484C31.8557 16.2845 32.812 14.7475 33.808 14.7475C34.7846 14.7475 35.2268 16.0695 34.874 18.1599L34.873 18.1608ZM46.8337 12.3392H44.4898L44.499 12.2158C44.6603 10.6583 45.0223 9.83836 46.2164 9.70467C47.0317 9.6224 47.3938 9.19234 47.4841 8.72115L47.7762 7.07105C43.0774 7.0402 41.5904 9.10914 41.2117 12.2672L41.2025 12.3392H41.1519C40.3872 12.3392 39.5432 13.2208 39.4013 14.338L39.3507 14.7475H40.9206L39.6031 25.8354L39.1996 27.824C39.2502 27.824 39.3101 27.8333 39.3599 27.8333C41.5618 27.7511 42.9715 25.9785 43.2829 23.4056L44.3111 14.7457H45.0481C45.7723 14.7457 46.6181 14.0071 46.7655 12.7777L46.8337 12.3392ZM59.0246 12.1335C56.3187 12.1335 53.7639 14.1623 52.9807 17.3503C52.1976 20.5383 53.3843 24.3088 57.3662 24.3088C61.3482 24.3088 63.6285 20.3822 63.6285 17.1138C63.6322 13.865 61.4707 12.1326 59.0255 12.1326L59.0246 12.1335ZM60.121 18.0571C59.9809 19.5024 59.3563 21.6957 57.6463 21.6957C55.9363 21.6957 56.1676 19.1341 56.3334 17.914C56.5149 16.6127 57.229 14.7578 58.7676 14.7578C60.1514 14.7578 60.2813 16.4285 60.1219 18.058L60.121 18.0571ZM76.9996 15.7918L75.5311 20.4962C75.4914 20.1269 74.4955 12.328 74.4955 12.328C72.183 12.328 70.9447 14.009 70.2961 15.7815L68.505 20.5065C68.4958 20.1681 68.2535 15.832 68.2535 15.832C68.1079 13.6593 66.1547 12.3373 64.5682 12.3373L66.4689 24.1545C68.892 24.1451 70.2003 22.4735 70.8848 20.701L72.3939 16.6837C72.4032 16.8473 73.4406 24.1554 73.4406 24.1554C75.8747 24.1554 77.1775 22.5876 77.8841 20.8758L81.2958 12.3383C78.9022 12.3383 77.6344 14.009 76.9904 15.7918H76.9996ZM49.0467 7.06918L47.075 23.271L46.6715 25.2698C46.7213 25.2698 46.7821 25.2792 46.8318 25.2792C48.9527 25.2483 50.4618 23.3533 50.7447 20.9646L51.8807 11.6689C52.2252 8.8296 50.5659 7.06731 49.0467 7.06731V7.06918Z" fill="#1F2122"/>
<path d="M88.5918 23.6212V11.1665H95.7949V12.4033H90.0946V16.6361H94.6894V17.8729H90.0946V22.3845H96.1058V23.6212H88.5918Z" fill="#1F2122"/>
<path d="M97.5618 23.6212L100.792 18.9355L97.7691 14.511H99.4447L101.656 17.8206L103.849 14.511H105.404L102.416 18.8309L105.715 23.6212H104.022L101.587 19.9458L99.0992 23.6212H97.5618Z" fill="#1F2122"/>
<path d="M107.828 26.7915V14.511H109.262V16.0439C109.538 15.5794 109.958 15.1845 110.523 14.8594C111.087 14.5226 111.686 14.3542 112.319 14.3542C113.528 14.3542 114.513 14.7723 115.273 15.6084C116.044 16.4329 116.43 17.5419 116.43 18.9355V19.0748C116.43 20.48 116.05 21.618 115.29 22.489C114.542 23.3483 113.551 23.778 112.319 23.778C111.617 23.778 111.001 23.627 110.471 23.3251C109.941 23.0115 109.538 22.6109 109.262 22.1232V26.7915H107.828ZM112.181 22.5761C113.079 22.5761 113.764 22.2799 114.236 21.6877C114.709 21.0954 114.945 20.2477 114.945 19.1445V19.0051C114.945 17.9019 114.68 17.0542 114.15 16.4619C113.632 15.8581 112.97 15.5561 112.164 15.5561C111.288 15.5561 110.574 15.8523 110.022 16.4445C109.48 17.0252 109.21 17.8787 109.21 19.0051V19.1445C109.21 20.2709 109.475 21.1245 110.004 21.7051C110.546 22.2857 111.271 22.5761 112.181 22.5761Z" fill="#1F2122"/>
<path d="M122.527 23.778C121.237 23.778 120.184 23.3599 119.366 22.5238C118.56 21.6761 118.157 20.5554 118.157 19.1619V19.0226C118.157 17.6522 118.548 16.5316 119.331 15.6607C120.126 14.7897 121.145 14.3542 122.389 14.3542C123.54 14.3542 124.502 14.7316 125.274 15.4865C126.057 16.2297 126.448 17.3619 126.448 18.8832V19.3535H119.642C119.677 20.3987 119.936 21.1999 120.42 21.7574C120.915 22.3032 121.623 22.5761 122.544 22.5761C123.961 22.5761 124.761 22.0477 124.945 20.9909H126.379C126.229 21.8851 125.809 22.5761 125.118 23.0638C124.427 23.5399 123.563 23.778 122.527 23.778ZM119.694 18.1864H124.98C124.853 16.4329 123.989 15.5561 122.389 15.5561C121.663 15.5561 121.064 15.7942 120.592 16.2703C120.12 16.7348 119.821 17.3735 119.694 18.1864Z" fill="#1F2122"/>
<path d="M128.821 23.6212V14.511H130.255V16.1484C130.565 15.5794 130.945 15.1439 131.395 14.842C131.855 14.54 132.466 14.3774 133.226 14.3542V15.7129C132.235 15.7594 131.492 15.9916 130.997 16.4097C130.502 16.8277 130.255 17.5651 130.255 18.6219V23.6212H128.821Z" fill="#1F2122"/>
<path d="M138.319 23.7431C137.524 23.7431 136.92 23.5283 136.505 23.0986C136.091 22.669 135.883 22.0825 135.883 21.3393V15.7303H134.588V14.511H135.883V12.4381H137.317V14.511H139.424V15.7303H137.317V21.1999C137.317 22.0825 137.691 22.5238 138.44 22.5238C138.854 22.5238 139.223 22.4599 139.545 22.3322V23.5515C139.188 23.6793 138.78 23.7431 138.319 23.7431Z" fill="#1F2122"/>
<path d="M144.684 23.778C143.601 23.778 142.749 23.5167 142.127 22.9941C141.517 22.4715 141.189 21.7457 141.143 20.8167H142.542C142.657 21.9896 143.365 22.5761 144.666 22.5761C145.979 22.5761 146.636 22.0941 146.636 21.1303C146.636 20.6774 146.469 20.3464 146.135 20.1374C145.812 19.9167 145.277 19.7367 144.528 19.5974C143.354 19.3767 142.536 19.0748 142.075 18.6916C141.615 18.2968 141.384 17.7045 141.384 16.9148C141.384 16.1252 141.695 15.5039 142.317 15.051C142.951 14.5865 143.659 14.3542 144.442 14.3542C146.4 14.3542 147.488 15.231 147.707 16.9845H146.325C146.221 16.4852 146.02 16.1252 145.72 15.9045C145.421 15.6723 144.989 15.5561 144.425 15.5561C143.906 15.5561 143.492 15.6781 143.181 15.9219C142.87 16.1542 142.715 16.4677 142.715 16.8626C142.715 17.2806 142.858 17.5884 143.146 17.7858C143.446 17.9832 144.004 18.1574 144.822 18.3084C145.363 18.4129 145.795 18.5174 146.117 18.6219C146.451 18.7148 146.774 18.86 147.085 19.0574C147.407 19.2548 147.638 19.5161 147.776 19.8413C147.925 20.1548 148 20.5438 148 21.0083C148 21.8561 147.712 22.5296 147.137 23.029C146.572 23.5283 145.755 23.778 144.684 23.778Z" fill="#1F2122"/>
</svg>
