<svg width="169" height="27" viewBox="0 0 169 27" fill="none" xmlns="http://www.w3.org/2000/svg">
<path d="M0.719145 12.6562C1.31843 9.52229 4.07515 7.35265 7.91059 7.35265C12.3453 7.35265 15.8212 9.28122 15.8212 15.308V26.5178H11.9857L11.5063 24.1071C10.1879 25.7946 8.39002 26.8794 5.75316 26.8794C2.51701 26.8794 0 24.8303 0 21.0937C0 17.3571 3.35601 14.9464 8.03045 14.9464H11.1467V14.1027C11.1467 11.933 9.5886 11.3303 7.79074 11.3303C6.4723 11.3303 5.15387 11.8125 4.55458 13.5L0.719145 12.6562ZM6.83188 22.9018C8.98931 22.9018 11.1467 21.4553 11.1467 19.0446V18.683H8.15031C6.11273 18.5625 4.91416 19.4062 4.91416 21.0937C4.91416 21.9375 5.6333 22.9018 6.83188 22.9018Z" fill="#FFFEFD"/>
<path d="M91.0922 12.6562C91.6914 9.52229 94.4482 7.35265 98.2836 7.35265C102.718 7.35265 106.194 9.28122 106.194 15.308V26.5178H102.359L101.879 24.1071C100.561 25.7946 98.763 26.8794 96.1262 26.8794C92.89 26.8794 90.373 24.8303 90.373 21.0937C90.373 17.3571 93.729 14.9464 98.4035 14.9464H101.52V14.1027C101.52 11.933 99.9616 11.3303 98.1637 11.3303C96.8453 11.3303 95.5269 11.8125 94.9276 13.5L91.0922 12.6562ZM97.2049 22.9018C99.3623 22.9018 101.52 21.4553 101.52 19.0446V18.683H98.4035C96.3659 18.683 95.1673 19.4062 95.1673 21.0937C95.2872 21.9375 96.0063 22.9018 97.2049 22.9018Z" fill="#FFFEFD"/>
<path d="M110.388 26.6384V7.59372H115.063V10.7276C116.381 8.43747 118.539 7.35265 120.576 7.35265C121.415 7.35265 122.134 7.47319 122.853 7.71426L122.014 12.0535C121.415 11.6919 120.816 11.4509 120.097 11.4509C117.34 11.4509 115.063 13.741 115.063 19.7678V26.5178L110.388 26.6384Z" fill="#FFFEFD"/>
<path d="M132.801 7.35268C134.719 7.35268 136.517 8.31697 137.356 9.40179V0H142.03V26.6384H137.356V24.7098C136.756 25.6741 135.078 27 132.801 27C127.168 27 124.291 23.0223 124.291 17.2366C124.291 11.4509 127.168 7.35268 132.801 7.35268ZM133.52 22.9018C135.917 22.9018 137.835 20.8527 137.835 17.1161C137.835 13.3795 135.917 11.3304 133.52 11.3304C131.123 11.3304 129.205 13.3795 129.205 17.1161C129.205 20.8527 131.123 22.9018 133.52 22.9018Z" fill="#FFFEFD"/>
<path d="M158.811 10.3661L156.054 12.8974C155.215 11.692 153.897 11.2099 152.938 11.2099C151.979 11.2099 151.14 11.8125 151.14 12.7768C151.14 13.6206 151.859 14.2232 152.938 14.5849C155.575 15.5491 159.77 16.3929 159.77 20.3706C159.77 23.8661 157.133 26.6384 153.058 26.6384C149.103 26.6384 146.466 23.8661 145.627 21.5759L149.342 19.5268C150.062 21.3349 151.26 22.6607 153.178 22.6607C154.616 22.6607 155.575 21.9375 155.575 20.6116C155.575 19.0447 153.178 18.6831 150.901 17.7188C148.863 16.875 147.065 15.5491 147.065 12.6563C147.065 9.76342 149.462 7.11164 153.058 7.11164C155.455 7.23217 157.732 8.55807 158.811 10.3661Z" fill="#FFFEFD"/>
<path d="M62.206 7.59381L58.85 20.7322L55.6139 7.59381H51.299L48.1827 20.7322L45.5458 13.1385L45.1863 13.9822L43.748 18.9242L46.1451 26.6385H50.2203L53.4564 14.3438L56.6926 26.6385H60.8876L66.8805 7.59381H62.206Z" fill="#FFFEFD"/>
<path d="M84.6189 7.59381L81.2629 20.7322L78.0268 7.59381H73.7119L70.5956 20.7322L67.9587 13.1385L67.5992 13.9822L66.041 18.9242L68.558 26.6385H72.6332L75.8693 14.3438L79.1055 26.6385H83.1806L89.2934 7.59381H84.6189Z" fill="#FFFEFD"/>
<path d="M44.4676 7.59381L38.4747 26.5179H34.3996L31.1634 14.3438L27.9273 26.6385H23.8521L17.8592 7.71434H22.5337L25.8897 20.7322L29.1258 7.71434H33.4407L36.6769 20.7322L40.0329 7.71434L44.4676 7.59381Z" fill="#FFFEFD"/>
<path d="M165.884 20.4911C167.682 20.4911 169 21.817 169 23.625C169 25.433 167.682 26.7589 165.884 26.7589C164.086 26.7589 162.767 25.433 162.767 23.625C162.767 21.817 164.086 20.4911 165.884 20.4911Z" fill="#FFFEFD"/>
</svg>
