<svg width="132" height="30" viewBox="0 0 132 30" fill="none" xmlns="http://www.w3.org/2000/svg">
<path d="M5.18635 0.391028V14.629C5.18635 17.1854 5.38712 20.389 10.4398 20.389C11.2764 20.389 13.786 20.3567 15.1245 18.3504C15.6264 17.6385 15.8941 16.7324 15.8941 14.3701V0.391028H20.9468V14.985C20.9468 21.9423 15.2251 24.1751 10.3397 24.1751C7.93043 24.1751 3.51348 23.6575 1.23808 20.1301C0.0669235 18.3506 0 16.5384 0 14.3703V0.391028H5.18635Z" fill="white"/>
<path d="M27.1219 7.38069L27.2558 9.71057C28.795 7.08945 31.6058 7.05709 32.4089 7.05709C36.7923 7.05709 39.4358 10.2283 39.4358 15.2117C39.4358 19.8389 36.9597 23.9488 32.0742 23.9488C29.0292 23.9488 27.7911 22.3957 27.3561 21.8456V30H22.3034V7.38069H27.1219ZM34.4166 15.4056C34.4166 13.4641 33.9146 10.131 31.0035 10.131C29.3973 10.131 27.1219 11.296 27.1219 15.6967C27.1219 16.6675 27.1554 20.8095 30.8027 20.8095C33.145 20.8097 34.4166 18.6416 34.4166 15.4056Z" fill="white"/>
<path d="M43.0495 0.358669H58.6424V4.11237H48.2358V9.87237H57.9397V13.7555H48.2358V23.7223H43.0495V0.358669Z" fill="white"/>
<path d="M66.4727 7.34833H61.5206V23.722H66.4727V7.34833Z" fill="white"/>
<path d="M69.971 11.3931C69.971 10.6164 69.8372 8.25418 69.7368 7.31576H74.388L74.4884 10.4546C75.1239 9.06317 76.2284 7.08924 80.2436 7.2834V11.5872C75.2245 11.1342 74.9232 13.6259 74.9232 15.6645V23.722H69.971V11.3931Z" fill="white"/>
<path d="M81.9775 10.4548C81.9775 9.41934 81.9104 8.41619 81.8102 7.38069H86.5953L86.7626 9.48406C87.2977 8.77215 88.6027 7.02473 91.9826 7.02473C95.8639 7.02473 96.9684 9.32226 97.303 10.0989C98.7084 7.47777 100.984 7.05709 102.724 7.05709C106.137 7.05709 107.509 9.03102 107.877 9.67821C108.78 11.102 108.713 13.076 108.713 14.4998V23.7223H103.727V14.1115C103.727 12.3641 103.46 10.4225 100.883 10.4225C97.9051 10.4225 97.8384 13.1083 97.8384 15.5353V23.7223H92.8524V14.0144C92.8524 12.7524 92.8191 10.4225 90.0753 10.4225C86.9633 10.4225 86.9633 13.0112 86.9633 14.1115V23.7223H81.9775V10.4548Z" fill="white"/>
<path d="M115.196 18.9976C115.263 20.0331 115.932 21.2304 118.007 21.2304C119.78 21.2304 120.617 20.2596 120.617 19.2886C120.617 18.5445 120.215 17.962 118.274 17.4443L115.196 16.6353C113.824 16.247 110.913 15.438 110.913 12.105C110.913 8.93374 113.924 6.99216 118.308 6.99216C121.787 6.99216 124.598 8.54542 124.732 11.8137H120.215C120.081 10.0016 118.575 9.87216 117.806 9.87216C116.467 9.87216 115.463 10.487 115.463 11.4901C115.463 12.5904 116.3 12.8169 117.772 13.2052L120.817 14.0142C123.896 14.8232 125.334 16.3441 125.334 18.5767C125.334 21.3922 122.825 24.2074 117.571 24.2074C115.396 24.2074 113.322 23.7544 111.782 22.2011C110.678 21.0686 110.578 19.7744 110.545 18.9976H115.196Z" fill="white"/>
<path d="M63.9831 5.61093C65.5853 5.61093 66.8841 4.35488 66.8841 2.80547C66.8841 1.25605 65.5853 0 63.9831 0C62.3809 0 61.0821 1.25605 61.0821 2.80547C61.0821 4.35488 62.3809 5.61093 63.9831 5.61093Z" fill="white"/>
<path d="M129.099 24.5567C130.701 24.5567 132 23.3007 132 21.7512C132 20.2018 130.701 18.9458 129.099 18.9458C127.497 18.9458 126.198 20.2018 126.198 21.7512C126.198 23.3007 127.497 24.5567 129.099 24.5567Z" fill="white"/>
</svg>
