<svg width="135" height="34" viewBox="0 0 135 34" fill="none" xmlns="http://www.w3.org/2000/svg">
<path d="M43.596 13.3107C43.596 10.8695 41.2475 8.30928 37.1656 8.30928C32.588 8.30928 27.5621 11.6705 26.7925 18.3793C26.0061 25.1537 30.215 28.164 34.4576 28.164C38.7002 28.164 40.9217 26.5085 43.1936 24.3008C41.2399 21.8443 38.717 22.9795 38.2335 23.2297C37.4332 23.6744 36.5269 23.8943 35.6112 23.8659C33.9741 23.8659 32.3034 23.1305 32.3034 20.0698C42.7928 19.0323 43.5945 15.7367 43.5945 13.3107H43.596ZM38.3972 13.712C38.3299 14.4642 38.03 15.7519 32.718 16.4736C33.8349 12.4914 35.9768 12.1923 36.9606 12.1923C37.16 12.1833 37.359 12.2171 37.5441 12.2915C37.7292 12.3659 37.8961 12.4792 38.0334 12.6237C38.1707 12.7681 38.2752 12.9404 38.3398 13.1287C38.4045 13.317 38.4277 13.517 38.4079 13.715L38.3972 13.712ZM20.6314 14.365L18.1927 22.0426L16.4715 8.71208C12.6313 8.71208 10.5659 11.4554 9.48877 14.3482L6.51454 22.0594L6.09686 14.4306C5.87043 10.8848 2.62387 8.72734 0 8.72734L3.17312 28.0129C7.1969 27.9977 9.36943 25.2696 10.5062 22.3768L13.0214 15.8206C13.0444 16.0876 14.7595 28.0145 14.7595 28.0145C18.8016 28.0145 20.9741 25.4558 22.1384 22.6621L27.7992 8.72886C23.8137 8.72886 21.7131 11.4554 20.6284 14.365H20.6314ZM58.4304 8.26198C55.9412 8.26198 54.0395 9.61686 52.433 11.6064V11.5912L53.8681 0C50.5604 0 47.8707 2.87758 47.3536 7.15886L44.8659 27.8634C46.7707 27.8634 48.7917 27.3111 49.878 25.9059C50.848 27.16 52.2999 28.164 54.4556 28.164C60.0338 28.164 63.8602 21.6749 63.8602 15.5856C63.8266 10.0319 61.1369 8.27724 58.4473 8.27724L58.4304 8.26198ZM57.9103 18.2145C57.3289 21.6093 55.4379 23.9178 53.6187 23.9178C51.7996 23.9178 50.9964 23.0985 50.9964 23.0985C51.3483 20.1232 51.5655 18.2984 52.2326 16.7254C52.8997 15.1523 54.4878 12.644 56.1416 12.644C57.7634 12.644 58.4978 14.8014 57.9118 18.213L57.9103 18.2145ZM77.7721 8.71361H73.8799L73.8952 8.51221C74.163 5.97029 74.7642 4.6322 76.747 4.41402C78.1011 4.27975 78.7023 3.5779 78.8523 2.80892L79.3372 0.115958C71.5345 0.0656079 69.0651 3.44211 68.4363 8.59612L68.421 8.71361H68.3369C67.067 8.71361 65.6656 10.1524 65.43 11.9757L65.3458 12.644H67.9529L65.765 30.7395L65.0949 33.9847C65.1791 33.9847 65.2785 34 65.3611 34C69.0177 33.8657 71.3585 30.9729 71.8757 26.774L73.5831 12.6409H74.8071C76.0096 12.6409 77.4141 11.4356 77.6589 9.42919L77.7721 8.71361ZM98.0164 8.37794C93.523 8.37794 89.2804 11.6888 87.9799 16.8917C86.6795 22.0945 88.6501 28.2479 95.2625 28.2479C101.875 28.2479 105.662 21.8397 105.662 16.5057C105.668 11.2036 102.078 8.37641 98.018 8.37641L98.0164 8.37794ZM99.8371 18.0451C99.6045 20.404 98.5672 23.9834 95.7276 23.9834C92.888 23.9834 93.2721 19.8028 93.5474 17.8117C93.8488 15.6878 95.0346 12.6607 97.5896 12.6607C99.8876 12.6607 100.103 15.3873 99.8386 18.0467L99.8371 18.0451ZM127.866 14.3482L125.427 22.0258C125.361 21.4232 123.707 8.6953 123.707 8.6953C119.867 8.6953 117.811 11.4386 116.734 14.3314L113.76 22.0426C113.744 21.4903 113.342 14.4138 113.342 14.4138C113.1 10.868 109.857 8.71055 107.222 8.71055L110.378 27.9961C114.402 27.9809 116.575 25.2528 117.712 22.36L120.218 15.8038C120.233 16.0708 121.956 27.9977 121.956 27.9977C125.998 27.9977 128.161 25.439 129.335 22.6453L135 8.71208C131.025 8.71208 128.92 11.4386 127.851 14.3482H127.866ZM81.4471 0.112908L78.173 26.5543L77.5028 29.8164C77.5854 29.8164 77.6864 29.8316 77.7691 29.8316C81.291 29.7813 83.7971 26.6886 84.2668 22.7903L86.1532 7.61964C86.7254 2.98591 83.9699 0.109855 81.4471 0.109855V0.112908Z" fill="#FFFEFD"/>
</svg>
