<svg width="117" height="22" viewBox="0 0 117 22" fill="none" xmlns="http://www.w3.org/2000/svg">
<g clip-path="url(#clip0_5296_6073)">
<path d="M10.0547 0C11.0525 0 11.9736 0.0785159 12.8179 0.310954C13.6622 0.466431 14.353 0.777385 14.967 1.16608C15.581 1.55477 16.0415 2.09894 16.3486 2.79936C16.6556 3.49823 16.8091 4.35413 16.8091 5.287C16.8091 6.37456 16.5788 7.3082 16.0415 8.00784C15.581 8.70671 14.8135 9.32862 13.8924 9.79505C15.1972 10.1837 16.195 10.8826 16.8091 11.8163C17.4231 12.7491 17.8069 13.9152 17.8069 15.2367C17.8069 16.3243 17.5766 17.258 17.1928 18.0353C16.8091 18.8127 16.195 19.5124 15.5043 19.9788C14.8135 20.446 13.9692 20.8347 13.0481 21.0671C12.1271 21.2996 11.206 21.4558 10.285 21.4558H0V0H10.0547ZM9.44071 8.70671C10.285 8.70671 10.9758 8.4735 11.5131 8.08481C12.0503 7.69611 12.2806 6.99647 12.2806 6.14134C12.2806 5.67491 12.2038 5.20848 12.0503 4.89753C11.8968 4.58657 11.6666 4.35336 11.3596 4.12014C11.0525 3.96466 10.7455 3.80919 10.3618 3.73145C9.97799 3.65371 9.59422 3.65371 9.1337 3.65371H4.68198V8.70671H9.44071ZM9.67098 17.8799C10.1315 17.8799 10.592 17.8021 10.9758 17.7252C11.3596 17.6466 11.7433 17.4912 12.0503 17.258C12.3574 17.0247 12.5876 16.7915 12.8179 16.4028C12.9714 16.0141 13.1249 15.5469 13.1249 15.0035C13.1249 13.9152 12.8179 13.1378 12.2038 12.5929C11.5898 12.1264 10.7455 11.894 9.74773 11.894H4.68198V17.8799H9.67098ZM24.4845 17.8021C25.0985 18.424 26.0195 18.735 27.2476 18.735C28.0919 18.735 28.8594 18.5018 29.4734 18.1131C30.0875 17.6459 30.4712 17.1802 30.6248 16.713H34.3857C33.7717 18.5787 32.8506 19.9011 31.6226 20.7554C30.3945 21.5328 28.9362 22 27.1708 22C25.9428 22 24.8682 21.766 23.8704 21.3773C22.8726 20.9886 22.1051 20.4452 21.4143 19.6678C20.7235 18.9682 20.1862 18.1131 19.8792 17.1017C19.4955 16.0911 19.342 15.0035 19.342 13.7589C19.342 12.5929 19.4955 11.5053 19.8792 10.4939C20.263 9.48332 20.8003 8.62898 21.4911 7.85159C22.1818 7.15194 23.0261 6.53004 23.9472 6.14134C24.945 5.75265 25.9428 5.51943 27.1708 5.51943C28.4757 5.51943 29.627 5.75265 30.6248 6.29682C31.6226 6.84099 32.3901 7.4629 33.0041 8.39576C33.6182 9.25088 34.0787 10.2607 34.3857 11.3498C34.5392 12.4382 34.616 13.5265 34.5392 14.7703H23.4099C23.4099 16.0141 23.8704 17.1802 24.4845 17.8021ZM29.3199 9.63958C28.7827 9.09541 27.9384 8.78445 26.9406 8.78445C26.2498 8.78445 25.7125 8.93915 25.252 9.17315C24.7915 9.40636 24.4845 9.71654 24.1774 10.0283C23.8704 10.34 23.7169 10.7279 23.6402 11.1166C23.5634 11.5053 23.4867 11.8155 23.4867 12.1272H30.3945C30.241 10.9611 29.8572 10.1837 29.3199 9.63958ZM40.526 0V8.08481H40.6027C41.14 7.15194 41.8308 6.53004 42.6751 6.14134C43.5194 5.75265 44.2869 5.51943 45.1312 5.51943C46.2825 5.51943 47.2036 5.67491 47.8944 5.98587C48.5851 6.29682 49.1992 6.76325 49.5829 7.30742C49.9667 7.85159 50.2737 8.55124 50.4272 9.32862C50.5807 10.106 50.6575 10.9619 50.6575 11.9717V21.5336H46.436V12.7491C46.436 11.4276 46.2058 10.4947 45.822 9.87279C45.4382 9.25088 44.7474 8.93993 43.7496 8.93993C42.5983 8.93993 41.7541 9.32862 41.2935 9.95131C40.7563 10.6502 40.526 11.8163 40.526 13.371V21.5336H36.3045V0H40.526ZM53.7276 8.24028C54.1882 7.54064 54.7254 7.0742 55.4162 6.607C56.107 6.2183 56.8745 5.90813 57.7188 5.75187C58.5631 5.5964 59.4067 5.51866 60.2517 5.51866C61.0192 5.51866 61.7868 5.5964 62.6318 5.67413C63.3994 5.75187 64.1669 5.98431 64.7802 6.29604C65.471 6.60622 65.9315 7.07343 66.3928 7.6176C66.7758 8.16254 67.006 8.93993 67.006 9.87279V18.0353C67.006 18.735 67.0828 19.4346 67.1596 20.0573C67.2371 20.6792 67.4658 21.2234 67.6968 21.5336H63.3986C63.2443 21.3781 63.1676 21.0671 63.0916 20.8347C63.0148 20.6007 63.0148 20.2905 63.0148 20.0573C62.3241 20.7562 61.5565 21.2234 60.6355 21.5336C59.7144 21.8445 58.7934 21.9223 57.8723 21.9223C57.1048 21.9223 56.4908 21.8445 55.8 21.6121C55.186 21.4566 54.6487 21.1449 54.1114 20.7562C53.6509 20.3675 53.2671 19.9011 52.9601 19.2799C52.7298 18.6572 52.5763 18.0353 52.5763 17.1802C52.5763 16.3243 52.7298 15.5469 53.0369 15.0035C53.3439 14.4594 53.7276 13.9929 54.1882 13.6042C54.6487 13.2941 55.2627 12.9823 55.8767 12.8269C56.4908 12.6722 57.1048 12.5167 57.7956 12.4382L59.6377 12.2049C60.2517 12.1272 60.789 12.0495 61.2495 11.9717C61.71 11.8163 62.0938 11.6608 62.4008 11.4276C62.7078 11.1943 62.7846 10.8834 62.7846 10.417C62.7846 9.95053 62.7078 9.56184 62.5543 9.32862C62.4008 9.09541 62.1706 8.86219 61.9403 8.70671C61.7093 8.55124 61.403 8.4735 61.096 8.39654C60.789 8.31802 60.4052 8.31802 60.0214 8.31802C59.1772 8.31802 58.5631 8.4735 58.1026 8.86219C57.6421 9.25088 57.3351 9.87279 57.2583 10.6502H53.0369C53.0369 9.71731 53.3439 8.86219 53.7276 8.24028ZM62.093 14.3039C61.8635 14.3816 61.5565 14.4594 61.2487 14.5371C60.9417 14.6156 60.6347 14.6156 60.2509 14.6926C59.9447 14.7703 59.5609 14.7703 59.2531 14.8481L58.3321 15.0813C58.0251 15.159 57.7181 15.3145 57.5646 15.47C57.3343 15.6254 57.1808 15.8587 57.0273 16.0919C56.7978 16.4028 56.7978 16.7138 56.7978 17.1025C56.7978 17.4912 56.8745 17.8021 57.0281 18.0353C57.1816 18.2686 57.3351 18.5025 57.5653 18.6572C57.7956 18.8127 58.1026 18.8912 58.4096 18.9682C58.7166 19.0452 59.0229 19.0459 59.4067 19.0459C60.2517 19.0459 60.865 18.8912 61.3255 18.6572C61.7868 18.3471 62.093 18.0353 62.3241 17.6466C62.5543 17.258 62.7078 16.8693 62.7078 16.4806C62.7846 16.0919 62.7846 15.7817 62.7846 15.5477V13.9152C62.5543 14.0707 62.3241 14.2269 62.093 14.3039ZM73.3774 5.90813V8.08481H73.4541C73.9906 7.15194 74.6822 6.53004 75.5257 6.14134C76.3708 5.75265 77.2918 5.51943 78.1353 5.51943C79.2867 5.51943 80.2077 5.67491 80.8985 5.98587C81.666 6.29682 82.2041 6.76325 82.5878 7.30742C82.9716 7.85159 83.2778 8.55124 83.5081 9.32862C83.6616 10.106 83.7391 10.9619 83.7391 11.9717V21.5336H79.5177V12.7491C79.5177 11.4276 79.2867 10.4947 78.9029 9.87279C78.5191 9.25088 77.8283 8.86219 76.7538 8.86219C75.6025 8.86219 74.7574 9.32862 74.2209 10.0283C73.6836 10.7279 73.4534 11.894 73.4534 13.4488V21.6113H69.2319V5.90813H73.3774ZM93.1783 8.70671C92.4883 8.70671 91.9502 8.86219 91.4905 9.17392C91.03 9.4841 90.6462 9.87279 90.3392 10.4177C90.0322 10.8842 89.8787 11.4283 89.7244 12.0502C89.5717 12.6729 89.5716 13.2163 89.5716 13.839C89.5716 14.3824 89.6484 15.0051 89.7244 15.5485C89.8787 16.1712 90.0314 16.6368 90.3392 17.1033C90.6462 17.5705 90.9532 17.9592 91.4137 18.2693C91.8743 18.5803 92.4108 18.7365 93.1016 18.7365C94.1001 18.7365 94.8677 18.4256 95.4809 17.8806C96.019 17.3372 96.4027 16.5599 96.4795 15.5485H100.547C100.241 17.6474 99.4737 19.2022 98.1673 20.2913C96.8633 21.3789 95.1747 21.9238 93.1016 21.9238C91.9503 21.9238 90.8757 21.6906 89.9547 21.3019C88.9561 20.9132 88.1885 20.369 87.4985 19.6694C86.8085 18.9698 86.2697 18.1146 85.8859 17.1818C85.5022 16.1712 85.3494 15.1598 85.3494 13.9937C85.3494 12.7499 85.5022 11.6616 85.8859 10.651C86.2697 9.64035 86.731 8.70749 87.421 7.93011C88.1118 7.15272 88.9561 6.60855 89.8779 6.14212C90.8749 5.75343 91.9495 5.52021 93.1775 5.52021C94.0994 5.52021 94.9436 5.67569 95.7872 5.9089C96.6307 6.14212 97.399 6.53081 98.013 6.99647C98.7038 7.46368 99.2411 8.08481 99.6249 8.86219C100.009 9.56184 100.24 10.4947 100.316 11.5053H96.1709C96.0197 9.63958 95.0212 8.70671 93.1783 8.70671ZM22.5656 1.47703H31.162V3.57597H22.5656V1.47703ZM106.918 17.8021C107.533 18.424 108.53 18.735 109.681 18.735C110.526 18.735 111.294 18.5018 111.907 18.1131C112.522 17.6459 112.906 17.1802 113.058 16.713H116.743C116.128 18.5787 115.208 19.9011 113.979 20.7554C112.751 21.5328 111.293 22 109.528 22C108.3 22 107.225 21.766 106.226 21.3773C105.282 21.0206 104.438 20.4334 103.771 19.6678C103.08 18.9682 102.543 18.1131 102.236 17.1017C101.852 16.0911 101.699 15.0035 101.699 13.7589C101.699 12.5929 101.852 11.5053 102.236 10.4939C102.606 9.51895 103.152 8.62273 103.848 7.85159C104.539 7.15194 105.383 6.53004 106.304 6.14134C107.302 5.75265 108.376 5.51943 109.528 5.51943C110.832 5.51943 111.983 5.75265 112.905 6.29682C113.902 6.84099 114.669 7.4629 115.284 8.39576C115.898 9.25088 116.359 10.2607 116.666 11.3498C116.972 12.4374 117.049 13.6035 116.972 14.8481H105.843C105.843 16.0141 106.304 17.1802 106.918 17.8021ZM111.83 9.63958C111.293 9.09541 110.448 8.78445 109.451 8.78445C108.76 8.78445 108.222 8.93915 107.762 9.17315C107.301 9.40636 106.917 9.71654 106.688 10.0283C106.458 10.34 106.226 10.7279 106.15 11.1166C106.074 11.5053 105.998 11.8155 105.998 12.1272H112.906C112.675 10.9611 112.291 10.1837 111.83 9.63958Z" fill="#FFFEFD"/>
</g>
<defs>
<clipPath id="clip0_5296_6073">
<rect width="117" height="22" fill="white"/>
</clipPath>
</defs>
</svg>
