<svg width="232" height="34" viewBox="0 0 232 34" fill="none" xmlns="http://www.w3.org/2000/svg">
<g clip-path="url(#clip0_5296_6067)">
<path d="M22.9451 22.9929L11.4725 11.4965L22.9451 0H11.4725L0 11.4965L5.73626 17.3093L17.2088 28.6766L22.9451 22.9929Z" fill="#FFFEFD"/>
<path d="M31.1033 17.3093L25.367 11.4965L19.6308 5.81282L14.022 11.4965L25.367 22.9929L13.8945 34.4894H25.367L31.1033 28.8057L36.8396 22.9929L31.1033 17.3093Z" fill="#FFFEFD"/>
<path d="M51.1165 11.4965C49.4593 11.4965 48.0571 12.0132 47.0374 13.1757C46.0176 14.3383 45.5077 15.8884 45.5077 17.9552C45.5077 20.0219 46.0176 21.572 46.9099 22.7346C47.9297 23.8971 49.2044 24.4138 50.989 24.4138C52.1363 24.4138 53.2835 24.1555 54.6857 23.768V25.4472C53.5385 25.8347 52.2637 26.0931 50.7341 26.0931C48.4396 26.0931 46.655 25.4472 45.3802 24.0263C44.1055 22.6054 43.4681 20.5386 43.4681 17.9552C43.4681 16.2759 43.7231 14.855 44.3604 13.6924C44.9978 12.5299 45.8901 11.4965 46.9099 10.8506C47.9297 10.2047 49.3319 9.8172 50.989 9.8172C52.6462 9.8172 54.0484 10.0756 55.3231 10.7214L54.5583 12.2715C53.5385 11.884 52.3912 11.4965 51.1165 11.4965Z" fill="#FFFEFD"/>
<path d="M67.0506 21.7012C67.0506 23.1221 66.5407 24.1555 65.5209 24.9305C64.5011 25.7056 63.2264 26.0931 61.4418 26.0931C59.5297 26.0931 58.1275 25.8347 57.1077 25.3181V23.5096C57.7451 23.768 58.5099 24.0263 59.1473 24.1555C59.7846 24.2847 60.6769 24.4138 61.4418 24.4138C62.7165 24.4138 63.6088 24.1555 64.1187 23.768C64.7561 23.2513 65.011 22.6054 65.011 21.8304C65.011 21.3137 64.8835 20.797 64.6286 20.5386C64.3736 20.1511 63.9912 19.8928 63.4813 19.5052C62.9714 19.2469 62.2066 18.8594 61.1868 18.4718C59.7846 17.9552 58.6374 17.3093 58.1275 16.5342C57.4901 15.7592 57.2352 14.855 57.2352 13.6924C57.2352 12.5299 57.7451 11.4965 58.6374 10.7214C59.5297 9.94638 60.8044 9.68803 62.2066 9.68803C63.7363 9.68803 65.1385 9.94638 66.5407 10.5922L66.0308 12.1423C64.7561 11.6256 63.4813 11.3673 62.2066 11.3673C61.1868 11.3673 60.5495 11.6256 59.9121 12.0132C59.4022 12.4007 59.1473 13.0465 59.1473 13.8216C59.1473 14.3383 59.2747 14.855 59.4022 15.1133C59.6572 15.5008 59.9121 15.7592 60.422 16.0175C60.9319 16.2759 61.5692 16.6634 62.589 17.0509C64.2462 17.6968 65.3934 18.3427 66.0308 18.9885C66.7956 19.7636 67.0506 20.6678 67.0506 21.7012Z" fill="#FFFEFD"/>
<path d="M79.1604 21.7012C79.1604 23.1221 78.6506 24.1555 77.6308 24.9305C76.611 25.7056 75.3363 26.0931 73.5517 26.0931C71.6396 26.0931 70.2374 25.8347 69.2176 25.3181V23.5096C69.8549 23.768 70.6198 24.0263 71.2571 24.1555C71.8945 24.2847 72.7868 24.4138 73.5517 24.4138C74.8264 24.4138 75.7187 24.1555 76.2286 23.768C76.8659 23.2513 77.1209 22.6054 77.1209 21.8304C77.1209 21.3137 76.9934 20.797 76.7385 20.5386C76.4835 20.1511 76.1011 19.8928 75.5912 19.5052C75.0813 19.2469 74.3165 18.8594 73.2967 18.4718C71.8945 17.9552 70.7473 17.3093 70.2374 16.5342C69.6 15.7592 69.3451 14.855 69.3451 13.6924C69.3451 12.5299 69.8549 11.4965 70.7473 10.7214C71.6396 9.94638 72.9143 9.68803 74.3165 9.68803C75.8462 9.68803 77.2484 9.94638 78.6506 10.5922L78.1407 12.1423C76.8659 11.6256 75.5912 11.3673 74.3165 11.3673C73.2967 11.3673 72.6593 11.6256 72.022 12.0132C71.5121 12.4007 71.2571 13.0465 71.2571 13.8216C71.2571 14.3383 71.3846 14.855 71.5121 15.1133C71.767 15.5008 72.022 15.7592 72.5319 16.0175C73.0418 16.2759 73.6791 16.6634 74.6989 17.0509C76.356 17.6968 77.5033 18.3427 78.1407 18.9885C78.778 19.7636 79.1604 20.6678 79.1604 21.7012Z" fill="#FFFEFD"/>
<path d="M95.0945 17.6968C95.0945 20.2803 94.3297 22.3471 92.9275 23.768C91.5253 25.1889 89.4857 25.9639 86.8088 25.9639H81.7099V10.0756H87.0637C89.6132 10.0756 91.5253 10.7214 92.9275 12.0132C94.3297 13.3049 95.0945 15.2425 95.0945 17.6968ZM90.7604 17.826C90.7604 16.4051 90.5055 15.2425 89.8681 14.5966C89.3582 13.9508 88.4659 13.5632 87.3187 13.5632H86.044V22.4762H86.9363C88.211 22.4762 89.1033 22.0887 89.7407 21.3137C90.5055 20.5386 90.7604 19.3761 90.7604 17.826Z" fill="#FFFEFD"/>
<path d="M103.508 26.2223C101.468 26.2223 99.9385 25.7056 98.7912 24.543C97.644 23.5096 97.1341 21.9595 97.1341 19.8928C97.1341 17.826 97.644 16.2759 98.6637 15.1133C99.6835 13.9508 101.213 13.4341 103.125 13.4341C104.91 13.4341 106.312 13.9508 107.332 14.855C108.352 15.7592 108.862 17.1801 108.862 18.9885V20.9261H101.341C101.341 21.572 101.596 22.0887 102.106 22.6054C102.615 22.9929 103.253 23.2513 104.018 23.2513C104.782 23.2513 105.42 23.1221 106.057 22.9929C106.695 22.8638 107.332 22.6054 108.097 22.2179V25.3181C107.459 25.7056 106.822 25.8347 106.057 25.9639C105.292 26.0931 104.527 26.2223 103.508 26.2223ZM103.253 16.4051C102.743 16.4051 102.36 16.5342 101.978 16.9218C101.596 17.1801 101.468 17.6968 101.341 18.3427H104.91C104.91 17.6968 104.782 17.3093 104.4 16.9218C104.273 16.5342 103.89 16.4051 103.253 16.4051Z" fill="#FFFEFD"/>
<path d="M120.589 22.2179C120.589 23.5096 120.207 24.543 119.314 25.1889C118.422 25.8347 117.147 26.2223 115.49 26.2223C114.598 26.2223 113.833 26.2223 113.196 26.0931C112.558 25.9639 111.793 25.8347 111.156 25.5764V22.2179C111.793 22.4762 112.558 22.7346 113.323 22.9929C114.088 23.1221 114.725 23.2513 115.363 23.2513C116.255 23.2513 116.765 22.9929 116.765 22.6054C116.765 22.3471 116.637 22.2179 116.382 22.0887C116.127 21.9595 115.363 21.572 114.215 21.0553C113.068 20.5386 112.303 20.0219 111.921 19.5052C111.538 18.8594 111.284 18.2135 111.284 17.3093C111.284 16.1467 111.666 15.2425 112.558 14.5966C113.451 13.9508 114.598 13.6924 116.255 13.6924C117.02 13.6924 117.785 13.8216 118.549 13.9508C119.314 14.0799 119.952 14.3383 120.716 14.7258L119.569 17.4385C119.059 17.1801 118.422 16.9218 117.785 16.7926C117.147 16.6634 116.637 16.5342 116.255 16.5342C115.618 16.5342 115.235 16.6634 115.235 17.0509C115.235 17.3093 115.363 17.4385 115.618 17.5676C115.873 17.6968 116.51 17.9552 117.657 18.4718C118.549 18.8594 119.187 19.1177 119.569 19.5052C119.952 19.8928 120.334 20.2803 120.462 20.6678C120.462 20.9261 120.589 21.572 120.589 22.2179Z" fill="#FFFEFD"/>
<path d="M122.884 10.5922C122.884 9.94638 123.011 9.42968 123.393 9.17134C123.776 8.91299 124.286 8.65464 125.051 8.65464C125.815 8.65464 126.453 8.78381 126.708 9.17134C127.09 9.42968 127.218 9.94638 127.218 10.5922C127.218 11.884 126.453 12.4007 124.923 12.4007C123.521 12.5299 122.884 11.884 122.884 10.5922ZM127.09 25.9639H122.884V13.6924H127.09V25.9639Z" fill="#FFFEFD"/>
<path d="M141.495 13.6924V15.7592L139.837 16.4051C140.092 16.7926 140.22 17.3093 140.22 17.826C140.22 19.1177 139.71 20.1511 138.818 20.9261C137.925 21.7012 136.523 21.9595 134.738 21.9595C134.229 21.9595 133.974 21.9595 133.719 21.8304C133.591 21.9595 133.591 22.2179 133.591 22.3471C133.591 22.6054 133.719 22.7346 134.101 22.8638C134.484 22.9929 134.866 22.9929 135.376 22.9929H137.415C140.092 22.9929 141.495 24.1555 141.495 26.4806C141.495 28.0307 140.857 29.1933 139.582 29.9683C138.308 30.7434 136.523 31.26 134.229 31.26C132.571 31.26 131.169 31.0017 130.277 30.3558C129.385 29.8391 128.875 28.9349 128.875 27.9015C128.875 26.4806 129.767 25.4472 131.552 25.0597C131.169 24.9305 130.914 24.6722 130.532 24.2847C130.277 23.8971 130.149 23.6388 130.149 23.2513C130.149 22.8638 130.277 22.4762 130.404 22.2179C130.659 21.9595 131.042 21.572 131.679 21.1845C131.042 20.9261 130.532 20.4095 130.149 19.8928C129.767 19.2469 129.64 18.601 129.64 17.6968C129.64 16.4051 130.149 15.3717 131.042 14.5966C131.934 13.8216 133.209 13.4341 134.866 13.4341C135.121 13.4341 135.503 13.4341 136.013 13.5632C136.523 13.5632 136.906 13.6924 137.16 13.6924H141.495ZM132.316 27.514C132.316 27.9015 132.444 28.1599 132.826 28.4182C133.209 28.6766 133.719 28.6766 134.356 28.6766C135.376 28.6766 136.141 28.5474 136.778 28.2891C137.415 28.0307 137.67 27.6432 137.67 27.2557C137.67 26.8681 137.543 26.739 137.16 26.6098C136.778 26.4806 136.268 26.3514 135.503 26.3514H133.846C133.336 26.3514 133.081 26.4806 132.699 26.6098C132.444 26.8681 132.316 27.1265 132.316 27.514ZM133.591 17.6968C133.591 18.9885 133.974 19.6344 134.866 19.6344C135.248 19.6344 135.631 19.5052 135.758 19.1177C136.013 18.8594 136.141 18.3427 136.141 17.6968C136.141 16.4051 135.758 15.7592 134.866 15.7592C134.101 15.7592 133.591 16.4051 133.591 17.6968Z" fill="#FFFEFD"/>
<path d="M150.927 19.2469C150.927 18.4718 150.8 17.826 150.545 17.4385C150.29 17.0509 149.908 16.7926 149.398 16.7926C148.633 16.7926 148.123 17.0509 147.868 17.6968C147.613 18.2135 147.358 19.2469 147.358 20.6678V26.0931H143.152V13.8216H146.338L146.848 15.3717H147.103C147.486 14.855 147.996 14.3383 148.633 14.0799C149.27 13.8216 150.035 13.6924 150.8 13.6924C152.202 13.6924 153.222 14.0799 153.987 14.855C154.752 15.63 155.134 16.7926 155.134 18.2135V26.2223H150.927V19.2469Z" fill="#FFFEFD"/>
<path d="M168.519 25.9639L166.607 20.9261H160.36L158.448 25.9639H156.664L162.91 10.0756H164.44L170.558 25.9639H168.519ZM165.969 19.2469L164.185 14.3383C163.93 13.6924 163.675 12.9174 163.42 12.0132C163.292 12.659 163.037 13.4341 162.782 14.3383L160.998 19.2469H165.969Z" fill="#FFFEFD"/>
<path d="M181.903 25.9639L179.736 18.9885C179.609 18.601 179.354 17.5676 178.971 16.1467H178.844C178.589 17.4385 178.334 18.3427 178.079 19.1177L175.912 26.0931H173.873L170.686 14.2091H172.598C173.363 17.1801 173.873 19.5052 174.382 21.0553C174.765 22.6054 175.02 23.6388 175.02 24.1555H175.147C175.275 23.768 175.402 23.2513 175.53 22.6054C175.657 21.9595 175.912 21.4428 176.04 21.0553L178.207 14.2091H180.119L182.158 21.0553C182.541 22.3471 182.796 23.3804 182.923 24.1555H183.051C183.051 23.8971 183.178 23.5096 183.305 22.9929C183.433 22.4762 184.198 19.5052 185.473 14.2091H187.257L184.07 26.0931H181.903V25.9639Z" fill="#FFFEFD"/>
<path d="M196.563 25.9639L196.18 24.2847H196.053C195.415 25.0597 194.906 25.5764 194.268 25.8347C193.631 26.0931 192.993 26.2223 192.101 26.2223C190.954 26.2223 190.062 25.9639 189.424 25.3181C188.787 24.6722 188.404 23.8971 188.404 22.7346C188.404 20.2803 190.316 19.1177 194.141 18.9885L196.18 18.8594V18.0843C196.18 17.1801 195.925 16.4051 195.543 16.0175C195.16 15.63 194.523 15.3717 193.631 15.3717C192.611 15.3717 191.591 15.63 190.316 16.2759L189.807 14.855C190.444 14.5966 190.954 14.3383 191.719 14.0799C192.356 13.9508 193.121 13.8216 193.758 13.8216C195.16 13.8216 196.18 14.0799 196.818 14.7258C197.455 15.3717 197.837 16.4051 197.837 17.6968V25.8347H196.563V25.9639ZM192.484 24.6722C193.631 24.6722 194.396 24.4138 195.033 23.768C195.67 23.1221 195.925 22.3471 195.925 21.1845V20.1511L194.141 20.2803C192.738 20.2803 191.719 20.5386 191.081 20.9261C190.444 21.3137 190.189 21.9595 190.189 22.7346C190.189 23.3804 190.444 23.8971 190.826 24.1555C191.336 24.543 191.846 24.6722 192.484 24.6722Z" fill="#FFFEFD"/>
<path d="M206.888 13.8216C207.398 13.8216 207.908 13.8216 208.29 13.9508L208.035 15.63C207.525 15.5008 207.143 15.5008 206.76 15.5008C205.868 15.5008 204.976 15.8884 204.338 16.6634C203.701 17.4385 203.319 18.4718 203.319 19.6344V25.9639H201.534V14.0799H202.936L203.191 16.2759H203.319C203.701 15.5008 204.338 14.855 204.848 14.4675C205.486 14.0799 206.123 13.8216 206.888 13.8216Z" fill="#FFFEFD"/>
<path d="M218.488 24.4138C217.596 25.5764 216.321 26.2223 214.664 26.2223C213.134 26.2223 211.987 25.7056 211.095 24.6722C210.202 23.6388 209.82 22.0887 209.82 20.1511C209.82 18.2135 210.202 16.6634 211.095 15.63C211.987 14.5966 213.134 13.9508 214.664 13.9508C216.193 13.9508 217.468 14.5966 218.36 15.7592H218.488L218.36 14.855V9.04216H220.145V25.9639H218.743L218.488 24.4138ZM214.919 24.6722C216.193 24.6722 216.958 24.2847 217.596 23.6388C218.105 22.9929 218.36 21.8304 218.36 20.4095V20.0219C218.36 18.3427 218.106 17.1801 217.468 16.4051C216.958 15.63 216.066 15.3717 214.791 15.3717C213.771 15.3717 213.007 15.7592 212.369 16.6634C211.859 17.4385 211.477 18.601 211.477 20.1511C211.477 21.7012 211.732 22.8638 212.242 23.6388C213.007 24.2847 213.771 24.6722 214.919 24.6722Z" fill="#FFFEFD"/>
<path d="M231.49 22.7346C231.49 23.8971 231.108 24.6722 230.215 25.3181C229.451 25.9639 228.303 26.2223 226.774 26.2223C225.244 26.2223 223.969 25.9639 223.077 25.4472V23.768C223.587 24.0263 224.224 24.2847 224.862 24.4138C225.499 24.543 226.136 24.6722 226.774 24.6722C227.666 24.6722 228.431 24.543 228.941 24.2847C229.451 24.0263 229.706 23.5096 229.706 22.8638C229.706 22.3471 229.451 21.9595 229.068 21.7012C228.686 21.3137 227.921 20.9261 226.774 20.5386C225.626 20.1511 224.862 19.7636 224.479 19.5052C223.969 19.2469 223.714 18.8594 223.459 18.4718C223.204 18.0843 223.077 17.5676 223.077 17.0509C223.077 16.1467 223.459 15.3717 224.224 14.7258C224.989 14.0799 226.009 13.8216 227.411 13.8216C228.686 13.8216 229.96 14.0799 231.108 14.5966L230.47 16.0175C229.323 15.5008 228.176 15.2425 227.284 15.2425C226.391 15.2425 225.754 15.3717 225.371 15.63C224.989 15.8884 224.734 16.2759 224.734 16.7926C224.734 17.0509 224.862 17.4385 224.989 17.5676C225.116 17.826 225.371 17.9552 225.754 18.2135C226.136 18.4718 226.774 18.7302 227.793 19.1177C229.196 19.6344 230.088 20.1511 230.598 20.6678C231.235 21.3137 231.49 21.9595 231.49 22.7346Z" fill="#FFFEFD"/>
</g>
<defs>
<clipPath id="clip0_5296_6067">
<rect width="232" height="34" fill="white"/>
</clipPath>
</defs>
</svg>
