<svg width="135" height="17" viewBox="0 0 135 17" fill="none" xmlns="http://www.w3.org/2000/svg">
<g clip-path="url(#clip0_5296_6069)">
<path d="M8.11518 0C6.87833 0 5.74635 0.227288 4.75053 0.672781C3.75493 1.11827 2.89342 1.74075 2.19036 2.52345C1.48914 3.30615 0.94247 4.23999 0.567138 5.30051C0.191576 6.35893 0 7.51633 0 8.74266C0 9.90937 0.180307 11.002 0.53356 11.9894C0.887044 12.9792 1.39876 13.8461 2.05398 14.5653C2.70736 15.2849 3.50977 15.8552 4.43752 16.2613C5.3632 16.6656 6.40686 16.8708 7.54068 16.8708C9.12181 16.8708 10.55 16.5724 11.7869 15.9851L11.8678 15.946V14.1584L11.6581 14.2763C10.5279 14.9099 9.19909 15.2306 7.70627 15.2306C6.73827 15.2306 5.87675 15.0555 5.14978 14.709C4.42096 14.3601 3.80254 13.8853 3.31474 13.2926C2.82511 12.6976 2.44794 11.9936 2.19749 11.1995C1.94543 10.3998 1.81848 9.537 1.81848 8.63297C1.81848 7.62462 1.96014 6.6817 2.24164 5.83193C2.52153 4.98566 2.93182 4.24208 3.46193 3.62147C3.9902 3.00271 4.65095 2.51437 5.42231 2.16599C6.19528 1.81737 7.09336 1.64225 8.09287 1.64225C9.35364 1.64225 10.5537 1.92729 11.6636 2.48829L11.8678 2.59075V0.671849L11.7779 0.635753C10.7066 0.214247 9.47346 0 8.11518 0Z" fill="white"/>
<path d="M23.0275 9.82763C22.6943 9.45107 22.2711 9.08568 21.7704 8.74079C21.2753 8.40173 20.6881 8.04752 20.0237 7.68796C19.3961 7.34866 18.8568 7.04289 18.4223 6.78044C17.9973 6.52334 17.6494 6.26042 17.3899 6.00147C17.1358 5.74786 16.95 5.47773 16.8359 5.19431C16.7218 4.91114 16.6646 4.56625 16.6646 4.16942C16.6646 3.7556 16.7494 3.39022 16.9169 3.08096C17.0861 2.7696 17.3219 2.50505 17.6144 2.2964C17.9127 2.08192 18.2659 1.91797 18.6636 1.80805C19.0665 1.69627 19.5009 1.64038 19.9575 1.64038C21.1851 1.64038 22.2692 1.90866 23.1784 2.43799L23.3902 2.56095V0.574041L23.3016 0.536781C22.4496 0.180712 21.3801 0 20.123 0C19.4053 0 18.7206 0.100603 18.0875 0.298082C17.4525 0.495794 16.8893 0.782699 16.4143 1.15367C15.9376 1.52627 15.5531 1.98295 15.2713 2.51414C14.9898 3.04719 14.8461 3.65663 14.8461 4.32569C14.8461 4.85501 14.9218 5.33404 15.0708 5.74949C15.2198 6.16704 15.4553 6.56223 15.772 6.91993C16.0832 7.27414 16.4898 7.62415 16.9794 7.96182C17.4635 8.29344 18.0525 8.65137 18.7298 9.02444C19.3354 9.3656 19.8691 9.67486 20.3165 9.945C20.7544 10.2119 21.1207 10.4818 21.4077 10.7482C21.6858 11.0111 21.8937 11.2945 22.0262 11.5905C22.157 11.8888 22.2233 12.2433 22.2233 12.6457C22.2233 13.4857 21.9489 14.1121 21.3838 14.5555C20.8151 15.0026 19.9372 15.2299 18.7758 15.2299C18.4757 15.2299 18.1555 15.2024 17.826 15.1477C17.4966 15.0939 17.1634 15.0112 16.8359 14.9074C16.51 14.8009 16.1862 14.6694 15.8732 14.5126C15.5623 14.3575 15.275 14.1785 15.0174 13.9847L14.7909 13.8112V15.9215L14.8574 15.9653C15.0653 16.0964 15.3376 16.2206 15.6671 16.3316C15.9891 16.4406 16.3352 16.5375 16.6924 16.6158C17.0475 16.694 17.4046 16.7564 17.7542 16.7955C18.104 16.8393 18.4113 16.8586 18.6654 16.8586C19.4402 16.8586 20.1617 16.7662 20.8114 16.5841C21.4666 16.402 22.039 16.1255 22.5158 15.7676C22.9962 15.4036 23.3736 14.9421 23.6404 14.3904C23.9072 13.8413 24.0417 13.1955 24.0417 12.4764C24.0417 11.9543 23.9571 11.472 23.7876 11.0432C23.6202 10.6157 23.3644 10.2077 23.0275 9.82763Z" fill="white"/>
<path d="M35.8601 11.0446C35.6927 10.6157 35.4367 10.2077 35.1 9.8274C34.7668 9.45084 34.3436 9.08499 33.8429 8.74056C33.3478 8.40173 32.7606 8.04729 32.0962 7.68773C31.4686 7.34842 30.9293 7.04266 30.4948 6.78021C30.0696 6.52311 29.7218 6.26019 29.4622 6.00123C29.2083 5.74763 29.0225 5.47749 28.9084 5.19408C28.7941 4.9109 28.7371 4.56601 28.7371 4.16919C28.7371 3.75537 28.8217 3.39022 28.9894 3.08073C29.1586 2.76937 29.3941 2.50482 29.6869 2.29616C29.9849 2.08168 30.3384 1.91774 30.7361 1.80782C31.139 1.69604 31.5734 1.64015 32.03 1.64015C33.2576 1.64015 34.3415 1.90842 35.2509 2.43775L35.4625 2.56071V0.574041L35.3741 0.536781C34.5221 0.180712 33.4526 0 32.1955 0C31.4778 0 30.7931 0.100603 30.16 0.298082C29.525 0.495794 28.9618 0.782699 28.4868 1.15367C28.0101 1.52627 27.6253 1.98295 27.3438 2.51414C27.0621 3.04719 26.9186 3.65663 26.9186 4.32569C26.9186 4.85501 26.994 5.33404 27.1433 5.74949C27.2923 6.16704 27.5278 6.56223 27.8445 6.91993C28.1554 7.27414 28.5623 7.62415 29.0519 7.96182C29.536 8.2939 30.125 8.65137 30.8023 9.02444C31.4079 9.3656 31.9416 9.67486 32.3887 9.945C32.8268 10.2119 33.1932 10.4818 33.4802 10.7487C33.7583 11.0111 33.9662 11.2945 34.0987 11.5905C34.2293 11.8888 34.2955 12.2433 34.2955 12.6457C34.2955 13.4857 34.0214 14.1121 33.4563 14.5555C32.8876 15.0026 32.0097 15.2299 30.8483 15.2299C30.5482 15.2299 30.228 15.2024 29.8985 15.1477C29.5691 15.0939 29.2359 15.0112 28.9084 14.9074C28.5825 14.8009 28.2585 14.6694 27.9457 14.5126C27.6345 14.3575 27.3475 14.1785 27.0899 13.9847L26.8634 13.8117V15.9215L26.9296 15.9653C27.1378 16.0964 27.4101 16.2206 27.7396 16.3316C28.0616 16.4406 28.4077 16.5375 28.7647 16.6158C29.12 16.694 29.4769 16.7564 29.8267 16.7955C30.1765 16.8393 30.4838 16.8586 30.7379 16.8586C31.5127 16.8586 32.2342 16.7662 32.8839 16.5841C33.5391 16.402 34.1115 16.1255 34.5883 15.7676C35.0687 15.4036 35.4459 14.9421 35.7129 14.3904C35.9797 13.8413 36.114 13.196 36.114 12.4764C36.114 11.9557 36.0294 11.4731 35.8601 11.0446Z" fill="white"/>
<path d="M69.0807 0.273863H67.3284V16.5964H69.0807V0.273863Z" fill="white"/>
<path d="M103.479 13.6305C103.465 13.61 93.2696 0.274096 93.2696 0.274096H91.4316V16.5967H93.1833C93.1833 16.5967 93.1785 3.37182 93.1686 3.13126C93.1735 3.13871 103.494 16.5967 103.494 16.5967H105.233V0.273863H103.47C103.471 0.273863 103.472 13.5262 103.479 13.6305Z" fill="white"/>
<path d="M85.4088 13.6305C85.3954 13.61 75.2008 0.274096 75.2008 0.274096H73.3625V16.5967H75.114C75.114 16.5967 75.109 3.37182 75.0982 3.13126C75.1032 3.13871 85.4246 16.5967 85.4246 16.5967H87.164V0.273863H85.4009C85.4009 0.273863 85.4014 13.5262 85.4088 13.6305Z" fill="white"/>
<path d="M111.257 9.14949H117.999V7.52005H111.257V1.92519H119.383V0.274096H109.505V16.5964H119.736V14.9563H111.257V9.14949Z" fill="white"/>
<path d="M132.044 11.4191C131.867 11.0842 131.695 10.7801 131.532 10.5172C131.368 10.2529 131.199 10.0142 131.029 9.809C130.858 9.60034 130.678 9.42149 130.496 9.27408C130.395 9.19211 130.286 9.11945 130.172 9.05448C130.619 8.92756 131.029 8.75756 131.399 8.54494C131.858 8.28016 132.251 7.95414 132.574 7.57385C132.897 7.19356 133.15 6.75203 133.323 6.25996C133.498 5.76975 133.586 5.22552 133.586 4.64589C133.586 3.92653 133.448 3.28356 133.179 2.73747C132.908 2.19137 132.546 1.73121 132.097 1.36955C131.651 1.00975 131.136 0.734027 130.565 0.551452C129.999 0.368644 129.402 0.275493 128.797 0.275493H123.198V16.5978H124.95V9.61874H127.448C127.764 9.61874 128.053 9.656 128.309 9.73052C128.559 9.80341 128.798 9.92614 129.017 10.0959C129.242 10.2696 129.463 10.5079 129.674 10.7994C129.89 11.0996 130.115 11.4762 130.349 11.9233L132.734 16.5182L132.775 16.5939H134.82L132.044 11.4191ZM124.951 1.92542H128.454C129.532 1.92542 130.364 2.18252 130.927 2.68763C131.485 3.19088 131.768 3.89347 131.768 4.77886C131.768 5.2707 131.685 5.71805 131.52 6.10952C131.356 6.49889 131.122 6.83633 130.825 7.11019C130.528 7.38825 130.164 7.60249 129.742 7.75316C129.317 7.90267 128.842 7.97905 128.331 7.97905H124.95L124.951 1.92542Z" fill="white"/>
<path d="M38.6514 0.274096L49.4822 16.5936L50.4226 15.1964L40.5306 0.274096H38.6514Z" fill="white"/>
<path d="M62.5984 0.274096L53.6557 13.7886L47.19 3.93305H45.2878L53.6771 16.5955L64.4812 0.274096H62.5984Z" fill="white"/>
<path d="M60.2716 0.274096H58.3915L52.7158 8.87586L53.6488 10.2859L60.2716 0.274096Z" fill="white"/>
</g>
<defs>
<clipPath id="clip0_5296_6069">
<rect width="135" height="17" fill="white"/>
</clipPath>
</defs>
</svg>
