<svg width="101" height="27" viewBox="0 0 101 27" fill="none" xmlns="http://www.w3.org/2000/svg">
<path d="M0.61 0.264999H12.703V2.324H3.133V9.371H10.847V11.43H3.133V18.941H13.225V21H0.61V0.264999ZM21.0924 13.199L16.0174 5.833H18.8304L22.5424 11.343L26.2254 5.833H28.8354L23.8184 13.025L29.3574 21H26.5154L22.4264 14.881L18.2504 21H15.6694L21.0924 13.199ZM32.9047 5.833H35.3117V8.385C35.5243 8.01767 35.8047 7.66967 36.1527 7.341C36.52 6.993 36.926 6.69333 37.3707 6.442C37.8347 6.17133 38.3277 5.95867 38.8497 5.804C39.3717 5.64933 39.9033 5.572 40.4447 5.572C41.4307 5.572 42.349 5.746 43.1997 6.094C44.0503 6.442 44.7753 6.94467 45.3747 7.602C45.9933 8.25933 46.4767 9.06167 46.8247 10.009C47.1727 10.9563 47.3467 12.0197 47.3467 13.199V13.431C47.3467 14.591 47.1823 15.6543 46.8537 16.621C46.525 17.5683 46.061 18.39 45.4617 19.086C44.8623 19.782 44.1373 20.3233 43.2867 20.71C42.436 21.0773 41.4887 21.261 40.4447 21.261C39.188 21.261 38.1247 20.9903 37.2547 20.449C36.404 19.9077 35.7563 19.26 35.3117 18.506V26.278H32.9047V5.833ZM40.2127 19.26C41.7207 19.26 42.871 18.7767 43.6637 17.81C44.4563 16.824 44.8527 15.403 44.8527 13.547V13.315C44.8527 12.3483 44.727 11.5073 44.4757 10.792C44.2243 10.0767 43.886 9.487 43.4607 9.023C43.0547 8.53967 42.5617 8.182 41.9817 7.95C41.421 7.69867 40.8217 7.573 40.1837 7.573C39.4877 7.573 38.8303 7.689 38.2117 7.921C37.6123 8.153 37.0903 8.51067 36.6457 8.994C36.201 9.458 35.853 10.0573 35.6017 10.792C35.3503 11.5073 35.2247 12.3483 35.2247 13.315V13.547C35.2247 15.4803 35.6887 16.9207 36.6167 17.868C37.5447 18.796 38.7433 19.26 40.2127 19.26ZM57.5823 21.261C56.519 21.261 55.533 21.0773 54.6243 20.71C53.735 20.3427 52.9616 19.8303 52.3043 19.173C51.647 18.4963 51.1346 17.6843 50.7673 16.737C50.4193 15.7897 50.2453 14.736 50.2453 13.576V13.344C50.2453 12.2033 50.4193 11.1593 50.7673 10.212C51.1153 9.24533 51.5986 8.42367 52.2173 7.747C52.8553 7.051 53.6093 6.51933 54.4793 6.152C55.3493 5.76533 56.3063 5.572 57.3503 5.572C58.2203 5.572 59.0613 5.717 59.8733 6.007C60.7046 6.27767 61.4393 6.71267 62.0773 7.312C62.7153 7.91133 63.218 8.69433 63.5853 9.661C63.972 10.6083 64.1653 11.7587 64.1653 13.112V13.895H52.7393C52.7973 15.635 53.2323 16.969 54.0443 17.897C54.8563 18.8057 56.0453 19.26 57.6113 19.26C59.9893 19.26 61.333 18.3803 61.6423 16.621H64.0493C63.7786 18.1483 63.0633 19.3083 61.9033 20.101C60.7433 20.8743 59.303 21.261 57.5823 21.261ZM61.7003 11.952C61.5843 10.386 61.1396 9.26467 60.3663 8.588C59.6123 7.91133 58.607 7.573 57.3503 7.573C56.113 7.573 55.098 7.96933 54.3053 8.762C53.532 9.53533 53.039 10.5987 52.8263 11.952H61.7003ZM68.1487 5.833H70.5557V8.559C71.0391 7.70833 71.6481 7.01233 72.3827 6.471C73.1367 5.91033 74.1904 5.61067 75.5437 5.572V7.834C74.7897 7.87267 74.1034 7.96933 73.4847 8.124C72.8661 8.27867 72.3344 8.53967 71.8897 8.907C71.4644 9.27433 71.1357 9.76733 70.9037 10.386C70.6717 10.9853 70.5557 11.749 70.5557 12.677V21H68.1487V5.833ZM84.0947 21.203C82.7027 21.203 81.6683 20.8357 80.9917 20.101C80.3343 19.3663 80.0057 18.3997 80.0057 17.201V7.863H77.8307V5.833H80.0057V2.382H82.4127V5.833H85.9507V7.863H82.4127V16.969C82.4127 18.4383 83.041 19.173 84.2977 19.173C84.6843 19.173 85.0227 19.144 85.3127 19.086C85.6027 19.028 85.883 18.9507 86.1537 18.854V20.884C85.9023 20.9807 85.622 21.058 85.3127 21.116C85.0033 21.174 84.5973 21.203 84.0947 21.203ZM94.7802 21.261C92.9629 21.261 91.5322 20.8357 90.4882 19.985C89.4636 19.115 88.9126 17.897 88.8352 16.331H91.1842C91.2809 17.2397 91.5902 17.955 92.1122 18.477C92.6536 18.999 93.5332 19.26 94.7512 19.26C95.9112 19.26 96.7522 19.0667 97.2742 18.68C97.7962 18.274 98.0572 17.665 98.0572 16.853C98.0572 16.041 97.7576 15.4707 97.1582 15.142C96.5782 14.794 95.6986 14.5137 94.5192 14.301C93.5332 14.127 92.7019 13.924 92.0252 13.692C91.3486 13.4407 90.8072 13.141 90.4012 12.793C89.9952 12.445 89.6956 12.0293 89.5022 11.546C89.3282 11.0627 89.2412 10.4923 89.2412 9.835C89.2412 9.139 89.3959 8.53 89.7052 8.008C90.0146 7.46667 90.4109 7.022 90.8942 6.674C91.3969 6.30667 91.9479 6.036 92.5472 5.862C93.1659 5.66867 93.7749 5.572 94.3742 5.572C95.0509 5.572 95.6986 5.64933 96.3172 5.804C96.9359 5.93933 97.4869 6.181 97.9702 6.529C98.4729 6.877 98.8886 7.33133 99.2172 7.892C99.5459 8.45267 99.7586 9.139 99.8552 9.951H97.5352C97.3612 9.11967 97.0229 8.52033 96.5202 8.153C96.0369 7.76633 95.3119 7.573 94.3452 7.573C93.4752 7.573 92.7792 7.776 92.2572 8.182C91.7352 8.56867 91.4742 9.09067 91.4742 9.748C91.4742 10.096 91.5226 10.3957 91.6192 10.647C91.7352 10.879 91.9286 11.0917 92.1992 11.285C92.4699 11.459 92.8276 11.6233 93.2722 11.778C93.7362 11.9133 94.3162 12.039 95.0122 12.155C95.8049 12.2903 96.5202 12.4547 97.1582 12.648C97.8156 12.8413 98.3762 13.1023 98.8402 13.431C99.3236 13.7403 99.6909 14.156 99.9422 14.678C100.213 15.1807 100.348 15.838 100.348 16.65C100.348 18.042 99.8842 19.1633 98.9562 20.014C98.0282 20.8453 96.6362 21.261 94.7802 21.261Z" fill="#FFFEFD"/>
</svg>
