<svg width="34" height="35" viewBox="0 0 34 35" fill="none" xmlns="http://www.w3.org/2000/svg">
<path fill-rule="evenodd" clip-rule="evenodd" d="M3.49107 0.889319C2.2217 1.27792 1.3145 2.0249 0.641426 3.23542C0.00820438 4.37456 0 4.55642 0 17.637C0 30.759 0.006154 30.8958 0.648166 32.0504C1.00448 32.6916 1.76282 33.5094 2.33304 33.8678C3.35481 34.5105 3.55612 34.5209 16.4092 34.6056C27.8327 34.6808 29.602 34.6325 30.6859 34.214C32.1484 33.6495 33.2654 32.4088 33.6847 30.8822C34.1708 29.1125 34.0665 5.48497 33.566 4.06682C33.0453 2.59092 32.3503 1.83001 30.9139 1.16329C29.8314 0.660661 28.7672 0.620676 16.9953 0.638151C9.98474 0.648518 3.90775 0.761662 3.49107 0.889319ZM30.6753 3.91577C31.1083 4.32709 31.3534 4.89809 31.3534 5.49526V17.5955C31.3534 30.5718 31.3505 30.6343 30.7164 31.3167C30.3099 31.7538 29.74 32.0021 29.1431 32.0021H16.9308H4.80527C4.15088 32.0021 3.52369 31.7403 3.06355 31.275C2.60269 30.8093 2.34418 30.1806 2.34418 29.5255V17.637V5.74848C2.34418 5.09333 2.60269 4.46465 3.06355 3.999C3.52369 3.5337 4.15088 3.27185 4.80527 3.27185H16.8898C29.9439 3.27185 29.9996 3.27452 30.6753 3.91577ZM12.9032 11.5456C12.7254 11.8817 12.6 14.3993 12.6 17.637C12.6 20.8746 12.7254 23.3922 12.9032 23.7284C13.2689 24.4191 14.5172 24.489 14.7663 23.8326C14.8641 23.575 14.9441 22.442 14.9441 21.315V19.266L17.2151 19.2654C19.9331 19.2651 21.2409 18.7027 22.025 17.1974C23.1001 15.1339 22.4036 12.5494 20.4934 11.5139C19.7043 11.0862 18.8364 10.9727 16.3509 10.9727C13.542 10.9727 13.1743 11.0338 12.9032 11.5456ZM19.6325 13.6384C19.958 13.9675 20.2185 14.6256 20.2185 15.1194C20.2185 16.6382 19.3565 17.1927 16.9953 17.1927H14.9441V15.1194V13.0461H16.9953C18.6559 13.0461 19.1581 13.1589 19.6325 13.6384Z" fill="#1F2122"/>
</svg>
