<svg width="65" height="16" viewBox="0 0 65 16" fill="none" xmlns="http://www.w3.org/2000/svg">
<g clip-path="url(#clip0_6796_3647)">
<path d="M16.1445 7.97472C16.1445 5.85969 15.2941 3.83129 13.7803 2.33574C12.2665 0.840191 10.2133 0 8.0725 0C5.93167 0 3.87852 0.840191 2.36473 2.33574C0.85093 3.83129 0.000488281 5.85969 0.000488281 7.97472" fill="#1F2122"/>
<path d="M16.1445 7.97472C16.1445 10.0897 16.9949 12.1181 18.5087 13.6137C20.0225 15.1092 22.0757 15.9494 24.2165 15.9494C26.3573 15.9494 28.4105 15.1092 29.9243 13.6137C31.4381 12.1181 32.2885 10.0897 32.2885 7.97471" fill="#1F2122"/>
<path d="M48.4325 7.97472C48.4325 5.85969 47.5821 3.83129 46.0683 2.33574C44.5545 0.840191 42.5014 0 40.3605 0C38.2197 0 36.1666 0.840191 34.6528 2.33574C33.139 3.83129 32.2885 5.85968 32.2885 7.97471" fill="#1F2122"/>
<path d="M48.4325 7.97472C48.4325 10.0897 49.283 12.1181 50.7968 13.6137C52.3106 15.1092 54.3637 15.9494 56.5046 15.9494C58.6454 15.9494 60.6985 15.1092 62.2123 13.6137C63.7261 12.1181 64.5766 10.0897 64.5766 7.97471" fill="#1F2122"/>
</g>
<defs>
<clipPath id="clip0_6796_3647">
<rect width="65" height="16" fill="white"/>
</clipPath>
</defs>
</svg>
