<svg width="65" height="23" viewBox="0 0 65 23" fill="none" xmlns="http://www.w3.org/2000/svg">
<path fill-rule="evenodd" clip-rule="evenodd" d="M5.12513 17.0091C4.44509 18.0645 3.04184 18.4308 2.15795 18.1117C1.66566 17.9335 1.45879 17.5876 1.5256 17.054C1.59204 16.525 1.8449 16.1753 2.29896 15.9854C2.55031 15.8802 2.8715 15.8232 3.24871 15.8232C3.87766 15.8232 4.66218 15.9823 5.53831 16.3439C5.37175 16.6179 5.23226 16.8428 5.12513 17.0091ZM14.9583 3.07519C16.0426 1.25356 16.7734 1.45332 17.1447 1.59191C18.0068 2.04467 18.2619 2.88695 17.9029 4.09608C17.8942 4.12553 17.0084 7.04676 14.9604 8.05367C14.0937 8.47985 13.1532 8.49609 12.0863 8.10241C13.6014 5.46041 14.8411 3.28137 14.9583 3.07519ZM24.8936 18.502C24.527 18.3001 24.0671 18.4332 23.8649 18.7984C23.8516 18.8222 22.5071 21.181 18.8887 21.4467C18.8769 21.4476 18.865 21.4487 18.8532 21.4501C15.6347 21.8378 12.2947 19.2214 9.85538 17.31C9.53736 17.0608 9.23399 16.8233 8.94688 16.6043C8.52423 16.2822 8.09536 15.9916 7.66532 15.7342C8.67566 14.0238 10.0452 11.6554 11.3253 9.4284C11.3731 9.44728 11.4216 9.46636 11.4704 9.48487C12.9618 10.0581 14.3613 10.0322 15.6296 9.40856C18.266 8.11242 19.3116 4.67005 19.3548 4.52486C19.9226 2.61317 19.3395 1.00641 17.795 0.226819C17.7716 0.215113 17.7475 0.20454 17.7229 0.1951C16.202 -0.383788 14.8337 0.326132 13.6487 2.31712C13.6182 2.37055 12.3039 4.68081 10.7016 7.47426C9.79425 6.96977 9.23306 6.40917 8.99778 5.7776C8.69459 4.96214 8.90561 3.89914 9.64337 2.52745C9.84098 2.16003 9.70264 1.70217 9.3341 1.50505C8.96544 1.30756 8.5066 1.44577 8.30905 1.81357C7.354 3.58931 7.11493 5.05786 7.57824 6.30328C7.93977 7.2743 8.72091 8.09315 9.95015 8.78287C8.66939 11.0106 7.30857 13.3636 6.31964 15.0368C4.5772 14.2738 2.91522 14.0907 1.71373 14.5923C0.757166 14.9924 0.156802 15.8001 0.0231784 16.8667C-0.130698 18.0938 0.489728 19.115 1.64201 19.5317C3.10052 20.0587 5.27844 19.565 6.3989 17.8255C6.52439 17.631 6.69134 17.361 6.89156 17.0306C7.2624 17.2538 7.64204 17.5106 8.0274 17.8043C8.30961 18.0196 8.6077 18.2531 8.92001 18.4978C11.3731 20.4199 14.6652 23.0004 18.191 23C18.4651 23 18.741 22.9843 19.0175 22.9518C23.4319 22.6199 25.1209 19.6543 25.1905 19.5282C25.3927 19.1628 25.2594 18.7035 24.8936 18.502Z" fill="#1F2122"/>
<path fill-rule="evenodd" clip-rule="evenodd" d="M27.9916 15.7185C27.24 16.1365 26.574 16.1163 26.115 15.662C25.7003 15.2512 25.5648 14.5849 25.8065 14.1449C25.812 14.1347 25.8148 14.124 25.8197 14.1136C26.1073 13.7152 26.3906 13.2877 26.6683 12.8237C26.835 12.545 27.0006 12.2636 27.166 11.9831C28.5789 9.58409 30.0408 7.11029 31.7081 7.234C32.1896 7.27197 32.5235 7.41791 32.729 7.68108C33.0506 8.09252 33.0232 8.75618 32.9864 8.97238C32.9781 9.01765 32.9754 9.0626 32.9752 9.10717C32.9647 9.12531 32.9544 9.14155 32.9438 9.16C32.8576 9.31072 32.7438 9.52535 32.6055 9.78802C31.8537 11.2127 30.0937 14.549 27.9916 15.7185ZM20.2563 8.33076C20.3373 8.23657 20.3991 8.13477 20.4706 8.01697C20.7687 7.52607 21.1767 6.85354 22.6811 7.2002C23.3132 7.34557 23.3971 7.65048 23.4287 7.76513C23.6151 8.44333 23.0354 9.90563 21.5933 11.2802C20.3972 12.4204 18.9704 12.0675 18.2796 11.7888C19.0425 10.2991 20.0848 8.54866 20.2563 8.33076ZM64.2428 5.29662H62.2226L64.3316 1.96378C64.555 1.61127 64.4489 1.14472 64.0951 0.922118C63.742 0.699512 63.274 0.804868 63.0512 1.15775L60.4321 5.29662H58.2244C57.8063 5.29662 57.4673 5.63478 57.4673 6.05188C57.4673 6.46892 57.8063 6.80708 58.2244 6.80708H59.4764L53.7037 15.9298C53.0465 17.0054 52.0847 16.6135 51.8988 16.5241C51.5636 16.3625 51.4771 16.1648 51.4393 16.0107C51.2884 15.3988 51.7447 14.4153 52.2325 13.7603C52.2458 13.7424 52.2584 13.7241 52.27 13.705C52.27 13.705 54.2249 10.5283 54.556 9.99364C54.8556 9.5093 55.2591 8.42104 54.8711 7.41187C54.6817 6.91927 54.2259 6.265 53.1308 5.94518C52.0619 5.63308 51.1266 5.88929 50.4342 6.249C50.3197 5.95066 50.1405 5.62024 49.8624 5.26566C49.6051 4.93732 49.1294 4.87917 48.7995 5.13651C48.4704 5.39348 48.4125 5.86815 48.6702 6.19668C49.0906 6.73253 49.1101 7.08769 49.1031 7.2002L44.9837 14.5749C44.5186 15.4075 43.6448 15.9154 42.6808 15.9116C42.2389 15.9081 41.845 15.6767 41.6271 15.2934C41.4091 14.9102 41.4123 14.4544 41.6359 14.0742L43.8096 10.3748C44.0031 10.0457 43.9198 9.62432 43.6158 9.39263C43.5959 9.37752 41.633 7.88274 41.1207 7.44731C40.4637 6.88943 41.0158 5.97028 41.0826 5.86494C41.3079 5.51583 41.2085 5.05023 40.8593 4.82328C40.5093 4.59614 40.0403 4.69432 39.8117 5.04381C39.4914 5.53414 39.1411 6.45494 39.3561 7.35407C36.4574 13.192 34.5638 15.1094 33.692 15.7327C33.0782 16.1716 32.4455 16.2638 32.0001 15.9798C31.5832 15.714 31.3981 15.1611 31.5173 14.5367C31.5236 14.5035 31.5241 14.4708 31.526 14.438C32.6109 13.0195 33.4367 11.4558 33.9452 10.4915C34.0736 10.2483 34.1785 10.0493 34.2583 9.90959C34.8708 8.8413 35.2747 8.68006 35.834 8.45693C36.222 8.30205 36.4107 7.86253 36.2555 7.47508C36.1001 7.08769 35.6593 6.89944 35.2713 7.05444C34.9453 7.18471 34.6397 7.3212 34.339 7.52532C34.2496 7.26838 34.1207 7.00836 33.9335 6.76552C33.6072 6.34206 32.9768 5.8183 31.8264 5.72843C29.2196 5.52131 27.5092 8.41859 25.8604 11.2178C25.6969 11.4956 25.533 11.7739 25.3681 12.0495C23.5604 15.0709 21.7065 16.4175 19.7016 16.1635C18.9455 16.0683 17.9611 15.8223 17.566 15.1923C17.2305 14.657 17.3723 13.9211 17.5501 13.3979C17.575 13.3251 17.6041 13.2466 17.6372 13.163C18.8724 13.6822 20.96 13.9729 22.6392 12.3721C23.9649 11.1087 25.3494 9.03918 24.8887 7.3654C24.6601 6.53427 23.9971 5.95293 23.0215 5.72843C20.45 5.1367 19.5242 6.66057 19.1756 7.23419C19.1451 7.28418 19.1204 7.328 19.1067 7.34765C18.7289 7.78717 16.6192 11.4346 16.1165 12.9126C15.7101 14.1068 15.7674 15.1721 16.2824 15.9932C16.8523 16.9025 17.9387 17.4638 19.5116 17.6623C19.7345 17.6902 19.9556 17.7044 20.1753 17.7044C21.6638 17.7044 23.0772 17.0583 24.4032 15.7761C24.5505 16.1271 24.767 16.4552 25.0483 16.7339C25.5826 17.2633 26.2509 17.5312 26.9735 17.5312C27.5381 17.5312 28.1358 17.3675 28.729 17.0375C29.2323 16.7577 29.7081 16.3916 30.1553 15.9733C30.3537 16.5001 30.7041 16.9461 31.1847 17.2526C31.6095 17.5233 32.0863 17.6574 32.5821 17.6574C33.238 17.6572 33.9273 17.4227 34.574 16.9603C36.2311 15.7759 38.1694 13.0191 40.3403 8.76373C40.8001 9.13645 41.6224 9.77064 42.165 10.1866L40.3296 13.3102C39.8297 14.161 39.8223 15.1809 40.31 16.0387C40.798 16.8966 41.6794 17.4138 42.6681 17.4221C42.6797 17.4221 42.6912 17.4223 42.7029 17.4223C44.199 17.4221 45.5774 16.6153 46.3065 15.3103L50.2476 8.25451C50.2688 8.23582 50.2914 8.21901 50.311 8.19747C50.3553 8.14912 51.4064 7.01516 52.7053 7.39487C53.3108 7.57178 53.4211 7.85856 53.4575 7.953C53.6244 8.38686 53.3971 8.99083 53.2676 9.19985C52.9544 9.70586 51.1881 12.5759 50.9964 12.8875C50.6383 13.3746 49.6143 14.9327 49.9686 16.3712C50.1333 17.0396 50.5732 17.5628 51.2403 17.8843C51.7005 18.1058 52.1315 18.1973 52.527 18.1973C53.7503 18.1973 54.6353 17.3223 54.9994 16.711L55.5192 15.8895C55.568 15.9962 55.622 16.1008 55.6842 16.2024C56.3465 17.2801 57.5764 17.7625 58.5015 17.7625C62.4187 17.7625 64.0697 12.6821 64.1379 12.4657C64.2639 12.0678 64.0423 11.6438 63.6433 11.5185C63.2448 11.3925 62.8197 11.6138 62.6937 12.0114C62.69 12.0224 62.3412 13.1125 61.6076 14.202C60.6919 15.5623 59.6468 16.2521 58.5015 16.2521C57.9992 16.2521 57.3136 15.964 56.9752 15.413C56.6576 14.8962 56.6978 14.2403 57.0943 13.4639C57.1196 13.4139 57.1382 13.3622 57.1517 13.3098L61.2669 6.80708H64.2428C64.6605 6.80708 65 6.46892 65 6.05188C65 5.63478 64.6605 5.29662 64.2428 5.29662Z" fill="#1F2122"/>
</svg>
