<?xml version="1.0" encoding="UTF-8"?>
<svg xmlns="http://www.w3.org/2000/svg" width="47" height="38" viewBox="0 0 47 38" fill="none">
  <path d="M7.80578 6.93013C8.30844 4.63537 10.3408 3 12.69 3H40.7862C43.9788 3 46.3535 5.95128 45.6704 9.06987L40.1942 34.0699C39.6916 36.3646 37.6592 38 35.31 38H7.21378C4.02125 38 1.64647 35.0487 2.32959 31.9301L7.80578 6.93013Z" fill="#1F2122"></path>
  <path d="M6.80578 3.93013C7.30844 1.63537 9.34081 0 11.69 0H39.7862C42.9788 0 45.3535 2.95128 44.6704 6.06987L39.1942 31.0699C38.6916 33.3646 36.6592 35 34.31 35H6.21378C3.02125 35 0.64647 32.0487 1.32959 28.9301L6.80578 3.93013Z" fill="#EDEDED"></path>
  <path d="M27.8461 9.7677L26.6564 10.1515V10.1515L27.8461 9.7677ZM25.1522 23.9125C25.3642 24.5695 26.0686 24.9303 26.7256 24.7183C27.3827 24.5063 27.7435 23.8019 27.5315 23.1449L25.1522 23.9125ZM22.3006 11.0019L23.4903 10.6181V10.6181L22.3006 11.0019ZM24.3304 8.08183L24.0589 6.86168L24.3304 8.08183ZM15.1357 25.9886C15.3476 26.6456 16.0521 27.0064 16.7091 26.7945C17.3661 26.5825 17.7269 25.8781 17.5149 25.221L15.1357 25.9886ZM13.1022 15.614L14.2918 15.2302L13.1022 15.614ZM18.8539 14.3339L20.0435 13.9502L18.8539 14.3339ZM15.2074 12.5854L15.479 13.8055H15.479L15.2074 12.5854ZM22.1991 24.6522L21.0095 25.036V25.036L22.1991 24.6522ZM26.4273 23.7112L27.6169 23.3274L26.4273 23.7112ZM24.8797 25.9376L24.6081 24.7175H24.6081L24.8797 25.9376ZM26.6564 10.1515L31.8104 26.1274L34.1896 25.3599L29.0357 9.38392L26.6564 10.1515ZM27.5315 23.1449L23.4903 10.6181L21.111 11.3856L25.1522 23.9125L27.5315 23.1449ZM24.6019 9.30198C25.6697 9.06436 26.4925 9.64348 26.6564 10.1515L29.0357 9.38392C28.3789 7.34817 26.0538 6.4177 24.0589 6.86168L24.6019 9.30198ZM24.0589 6.86168C22.0286 7.31353 20.4108 9.2153 21.111 11.3856L23.4903 10.6181C23.3698 10.2446 23.5696 9.53174 24.6019 9.30198L24.0589 6.86168ZM17.5149 25.221L14.2918 15.2302L11.9126 15.9978L15.1357 25.9886L17.5149 25.221ZM17.6642 14.7177L21.0546 25.2268L23.4338 24.4593L20.0435 13.9502L17.6642 14.7177ZM15.479 13.8055C16.6037 13.5552 17.4851 14.1624 17.6642 14.7177L20.0435 13.9502C19.3715 11.8671 16.9878 10.9086 14.9359 11.3652L15.479 13.8055ZM14.9359 11.3652C12.8487 11.8297 11.1971 13.7801 11.9126 15.9978L14.2918 15.2302C14.1561 14.8095 14.3897 14.0479 15.479 13.8055L14.9359 11.3652ZM17.9071 15.4193L21.0095 25.036L23.3888 24.2684L20.2863 14.6517L17.9071 15.4193ZM27.6169 23.3274L24.3609 13.2346L21.9817 14.0022L25.2377 24.095L27.6169 23.3274ZM25.1512 27.1578C26.8178 26.7869 28.2196 25.1956 27.6169 23.3274L25.2377 24.095C25.264 24.1767 25.2596 24.2659 25.1823 24.3772C25.0981 24.4983 24.9155 24.649 24.6081 24.7175L25.1512 27.1578ZM24.6081 24.7175C23.9042 24.8741 23.4552 24.4743 23.3888 24.2684L21.0095 25.036C21.5688 26.7696 23.52 27.5208 25.1512 27.1578L24.6081 24.7175Z" fill="#1F2122"></path>
</svg>
